{"glyphs":{"0":{"ha":1000,"x_min":22,"x_max":1061,"o":"m 776 1074 q 937 1024 872 1074 q 1031 887 1001 974 q 1053 682 1061 800 q 996 428 1046 564 q 868 174 946 292 q 697 -32 790 56 q 503 -169 604 -119 q 307 -219 403 -219 q 147 -169 211 -219 q 52 -32 82 -119 q 30 174 22 56 q 88 428 38 292 q 215 682 138 564 q 386 887 293 800 q 580 1024 479 974 q 776 1074 681 1074 m 704 875 q 631 858 669 875 q 553 811 593 842 l 711 251 q 759 337 738 293 q 797 428 781 381 q 839 598 831 517 q 835 741 847 679 q 789 839 822 803 q 704 875 756 875 m 379 -21 q 453 -3 414 -21 q 533 46 493 14 l 374 607 q 325 520 347 565 q 286 428 303 475 q 244 256 253 338 q 249 114 236 175 q 294 16 261 53 q 379 -21 328 -21 z "},"1":{"ha":272,"x_min":-167,"x_max":508,"o":"m -167 -224 l 306 1076 l 508 1076 l 35 -224 l -167 -224 l -167 -224 z "},"2":{"ha":843,"x_min":-167,"x_max":943,"o":"m 181 189 l 104 -21 l 574 -21 l 501 -219 l -167 -219 l 54 388 l 394 388 q 490 407 442 388 q 582 460 539 426 q 659 538 625 493 q 711 632 693 582 q 728 726 729 682 q 708 804 726 771 q 654 856 689 838 q 572 875 619 875 l 278 875 l 350 1074 l 644 1074 q 797 1039 732 1074 q 899 944 863 1004 q 939 803 935 883 q 910 632 943 724 q 813 460 876 540 q 670 319 750 379 q 500 224 590 258 q 322 189 410 189 l 181 189 z "},"3":{"ha":814,"x_min":-167,"x_max":918,"o":"m 890 701 q 798 549 860 619 q 653 428 736 479 q 708 306 697 376 q 690 154 719 236 q 604 9 663 76 q 469 -110 546 -58 q 305 -190 393 -161 q 129 -219 217 -219 l -167 -219 l -94 -21 l 201 -21 q 294 -7 249 -21 q 380 31 340 7 q 449 86 419 54 q 492 154 479 118 q 498 222 504 190 q 469 276 492 253 q 411 314 447 300 q 328 328 375 328 l 204 328 l 276 526 l 400 526 q 494 540 447 526 q 580 578 540 554 q 649 633 619 601 q 692 701 678 665 q 698 769 704 738 q 669 824 692 800 q 611 861 647 847 q 528 875 575 875 l 232 875 l 304 1074 l 600 1074 q 754 1044 688 1074 q 860 965 821 1015 q 909 846 900 914 q 890 701 918 778 z "},"4":{"ha":765,"x_min":51,"x_max":1001,"o":"m 900 1076 l 1001 1076 l 529 -224 l 326 -224 l 501 257 l 161 257 q 90 280 118 257 q 57 343 63 303 q 73 429 51 383 q 136 511 94 475 l 775 1076 l 900 1076 m 693 782 l 322 456 l 574 456 l 693 782 z "},"5":{"ha":856,"x_min":-125,"x_max":967,"o":"m 492 665 q 644 631 579 665 q 746 535 710 596 q 786 395 782 475 q 757 224 790 315 q 660 51 724 132 q 517 -90 597 -29 q 347 -185 438 -150 q 169 -219 257 -219 l -125 -219 l -53 -21 l 242 -21 q 338 -1 289 -21 q 429 51 386 18 q 506 129 472 85 q 558 224 540 174 q 574 318 576 274 q 553 396 572 363 q 501 448 535 429 q 419 467 467 467 l 78 467 l 299 1074 l 967 1074 l 894 875 l 425 875 l 349 665 l 492 665 l 492 665 z "},"6":{"ha":851,"x_min":-46,"x_max":824,"o":"m 824 1076 q 619 807 719 942 q 431 551 518 672 q 475 558 453 556 q 519 561 497 561 q 660 530 600 561 q 754 446 721 499 q 792 321 788 393 q 768 168 797 249 q 682 16 739 88 q 553 -108 625 -56 q 397 -192 481 -161 q 233 -224 314 -224 q 93 -193 153 -224 q -1 -110 33 -162 q -40 14 -35 -57 q -17 165 -46 85 q -16 167 -17 167 q -15 168 -15 167 l -15 169 q -12 176 -14 172 q -10 185 -11 181 q 40 278 10 231 q 115 397 71 331 q 208 534 158 463 q 313 680 258 606 q 420 826 367 754 q 522 961 474 897 q 610 1076 571 1025 l 824 1076 m 447 363 q 366 347 407 363 q 290 306 325 332 q 226 244 254 279 q 183 168 197 208 q 171 93 168 128 q 190 32 174 58 q 236 -10 207 6 q 306 -25 265 -25 q 387 -10 346 -25 q 463 32 428 6 q 526 93 499 58 q 569 168 554 128 q 581 244 583 208 q 563 306 579 279 q 516 347 546 332 q 447 363 486 363 z "},"7":{"ha":817,"x_min":69,"x_max":1053,"o":"m 1053 1074 l 274 -222 l 69 -222 l 729 875 l 228 875 l 300 1074 l 1053 1074 l 1053 1074 z "},"8":{"ha":881,"x_min":-44,"x_max":953,"o":"m 729 482 q 793 347 781 428 q 771 169 806 265 q 685 16 742 88 q 555 -108 628 -56 q 399 -192 482 -161 q 235 -224 315 -224 q 93 -192 153 -224 q -1 -108 33 -161 q -40 16 -35 -56 q -15 169 -44 88 q 91 347 19 265 q 253 482 163 428 q 215 593 221 529 q 238 732 210 657 q 313 865 263 803 q 426 975 363 928 q 563 1049 490 1022 q 707 1076 636 1076 q 831 1049 778 1076 q 915 975 885 1022 q 949 865 944 928 q 926 732 953 803 q 848 593 900 657 q 729 482 796 529 m 635 876 q 574 865 604 876 q 516 834 543 854 q 468 788 489 814 q 436 732 447 761 q 441 628 414 671 q 529 586 468 586 q 590 597 560 586 q 648 628 621 608 q 696 675 675 649 q 728 732 717 701 q 737 788 739 761 q 722 834 735 814 q 688 865 710 854 q 635 876 665 876 m 307 -24 q 388 -8 347 -24 q 465 33 429 7 q 528 94 500 58 q 571 169 556 129 q 583 245 585 210 q 564 307 581 281 q 518 349 547 333 q 449 364 489 364 q 367 349 408 364 q 290 307 326 333 q 226 245 254 281 q 183 169 197 210 q 171 94 168 129 q 190 33 174 58 q 237 -8 207 7 q 307 -24 267 -24 z "},"9":{"ha":851,"x_min":97,"x_max":967,"o":"m 936 685 l 936 683 q 933 676 933 681 q 931 669 932 672 q 881 576 911 621 q 806 458 849 524 q 713 319 763 392 q 608 173 663 247 q 501 28 554 99 q 399 -108 447 -43 q 311 -222 350 -172 l 146 -222 l 97 -222 q 302 46 201 -89 q 490 301 403 181 q 401 293 444 293 q 260 324 321 293 q 167 408 200 354 q 128 532 133 461 q 153 685 124 603 q 239 837 182 765 q 368 961 296 908 q 523 1045 440 1014 q 686 1076 606 1076 q 827 1046 767 1076 q 922 963 888 1015 q 961 839 956 910 q 938 688 967 768 l 936 686 l 936 685 m 474 492 q 555 507 514 492 q 631 548 596 522 q 694 609 667 574 q 738 685 722 644 q 749 759 751 724 q 731 821 747 794 q 684 863 714 847 q 614 878 654 878 q 533 863 574 878 q 458 821 493 847 q 394 759 422 794 q 351 685 365 724 q 339 609 336 644 q 358 548 342 574 q 404 507 375 522 q 474 492 433 492 z "},"\u0000":{"ha":0,"x_min":0,"x_max":0,"o":""},"\r":{"ha":694,"x_min":0,"x_max":0,"o":""}," ":{"ha":694,"x_min":0,"x_max":0,"o":""},"A":{"ha":997,"x_min":-167,"x_max":914,"o":"m 251 93 l 36 -225 l -167 -225 l 711 1072 l 914 1072 l 846 -225 l 643 -225 l 660 93 l 251 93 m 694 749 l 385 292 l 671 292 l 694 749 z "},"B":{"ha":871,"x_min":-167,"x_max":900,"o":"m -167 -225 l 306 1072 q 493 1073 400 1072 q 679 1074 586 1074 q 792 1038 744 1067 q 867 963 840 1008 q 897 860 893 918 q 876 735 900 801 q 815 622 854 675 q 722 524 775 568 q 810 379 789 468 q 792 185 831 290 q 699 25 761 100 q 558 -106 638 -50 q 388 -193 479 -161 q 207 -225 297 -225 l 35 -225 l -167 -225 m 333 593 l 467 593 q 533 604 500 593 q 594 635 565 615 q 645 680 624 654 q 678 735 667 706 q 668 836 700 794 q 569 878 636 878 l 436 878 l 333 593 m 107 -26 l 279 -26 q 377 -10 328 -26 q 469 35 426 7 q 544 102 511 64 q 593 185 576 140 q 603 266 608 228 q 577 333 599 304 q 518 378 556 361 q 432 394 481 394 l 261 394 l 107 -26 z "},"C":{"ha":706,"x_min":19,"x_max":956,"o":"m 263 422 q 233 245 228 328 q 278 101 239 163 q 388 3 318 39 q 553 -33 458 -33 l 482 -225 q 442 -228 465 -228 q 390 -225 418 -228 q 215 -160 294 -215 q 87 -17 135 -104 q 29 183 39 69 q 64 422 19 296 q 147 592 96 515 q 251 726 199 669 q 345 820 303 783 q 403 868 388 857 q 513 940 454 906 q 628 1001 563 969 q 769 1051 694 1032 q 822 1063 797 1058 q 865 1069 846 1067 q 907 1074 888 1072 q 934 1074 922 1075 q 956 1074 946 1074 l 883 878 q 693 842 789 878 q 513 744 597 806 q 363 599 429 682 q 263 422 297 517 z "},"D":{"ha":842,"x_min":-167,"x_max":876,"o":"m 824 424 q 761 287 799 354 q 674 156 724 219 q 566 34 625 92 q 440 -71 507 -24 q 311 -149 378 -115 q 176 -201 244 -182 q 1 -226 86 -226 q -167 -225 -83 -225 l 306 1072 l 356 1072 q 467 1074 411 1072 q 574 1064 522 1075 q 632 1049 600 1060 q 727 997 685 1029 q 799 919 769 964 q 868 700 861 825 q 824 424 876 568 m 107 -25 q 257 15 179 -21 q 406 112 335 51 q 534 253 476 172 q 625 424 592 333 q 658 594 658 514 q 632 735 658 675 q 555 833 606 796 q 435 874 504 869 l 107 -25 z "},"E":{"ha":686,"x_min":-167,"x_max":936,"o":"m 533 -33 l 464 -225 l -67 -225 l -167 -225 l 306 1072 q 412 1073 358 1072 q 518 1074 465 1074 l 786 1074 l 936 1074 l 865 878 l 436 878 l 324 569 l 582 569 l 510 371 l 251 371 l 104 -33 l 533 -33 z "},"F":{"ha":519,"x_min":-167,"x_max":936,"o":"m 251 371 l 35 -225 l -167 -225 l 306 1072 q 347 1073 326 1072 q 388 1074 367 1074 l 717 1074 l 936 1074 l 865 878 l 436 878 l 324 569 l 582 569 l 510 371 l 251 371 z "},"G":{"ha":963,"x_min":26,"x_max":990,"o":"m 990 521 l 718 -225 l 397 -225 q 203 -151 285 -208 q 76 -8 121 -94 q 29 188 32 78 q 71 422 26 299 q 207 666 118 551 q 410 868 296 781 q 653 1010 524 956 q 914 1074 783 1064 l 963 1074 l 890 878 q 700 842 796 878 q 520 744 604 806 q 370 599 436 682 q 269 422 304 517 q 242 245 236 328 q 287 101 247 163 q 396 3 326 39 q 560 -33 465 -33 l 590 -33 l 719 322 l 476 322 l 549 521 l 990 521 z "},"H":{"ha":833,"x_min":-167,"x_max":1069,"o":"m 867 1072 l 1069 1072 l 597 -225 l 394 -225 l 611 371 l 253 371 l 36 -225 l -167 -225 l 306 1072 l 508 1072 l 325 569 l 683 569 l 867 1072 l 867 1072 z "},"I":{"ha":272,"x_min":-167,"x_max":508,"o":"m 306 1072 l 508 1072 l 36 -225 l -167 -225 l 306 1072 l 306 1072 z "},"J":{"ha":876,"x_min":-42,"x_max":1113,"o":"m 797 213 q 792 198 794 206 q 786 183 789 190 q 778 165 782 174 q 768 146 774 156 q 748 108 758 126 q 725 72 738 90 q 674 4 701 36 q 615 -58 647 -28 q 465 -167 544 -124 q 425 -187 446 -178 q 385 -203 404 -196 q 349 -215 369 -210 q 304 -225 328 -221 q 289 -227 301 -225 q 257 -231 276 -229 q 214 -231 238 -232 q 167 -225 190 -229 q 87 -194 119 -215 q 32 -148 54 -172 q -1 -103 10 -124 q -17 -75 -12 -82 q -39 15 -36 -31 q -37 99 -42 60 q -22 168 -32 138 q -7 214 -12 199 l 192 214 q 172 117 172 163 q 188 39 172 72 q 233 -14 203 6 q 306 -33 264 -33 q 377 -19 340 -33 q 449 18 414 -6 q 538 105 501 54 q 594 208 575 156 q 609 247 601 228 q 624 286 617 267 q 645 344 635 315 q 667 403 656 374 q 692 474 679 439 q 718 544 704 508 l 772 694 q 798 766 785 731 q 824 838 811 801 q 846 898 835 868 q 868 958 857 928 q 883 1000 875 979 q 899 1042 892 1021 q 904 1057 901 1049 q 910 1072 907 1065 l 1113 1072 q 1099 1038 1104 1053 q 1089 1012 1093 1024 q 1085 999 1085 1000 q 1049 899 1067 949 q 1013 800 1032 850 q 968 677 990 738 q 924 554 946 617 q 883 444 904 499 q 843 335 863 390 q 821 274 832 304 q 797 213 810 244 z "},"K":{"ha":753,"x_min":-167,"x_max":1114,"o":"m 1114 1074 l 574 658 l 635 -225 l 418 -225 l 368 500 l 272 426 l 36 -225 l -167 -225 l 306 1072 l 508 1072 l 379 717 l 842 1074 l 1114 1074 l 1114 1074 z "},"L":{"ha":264,"x_min":-167,"x_max":556,"o":"m 108 -24 l 556 -24 l 482 -225 l 35 -225 l -167 -225 l -93 -24 l 306 1072 l 507 1072 l 108 -24 l 108 -24 z "},"M":{"ha":1072,"x_min":-167,"x_max":1308,"o":"m 1207 1074 q 1258 1073 1233 1074 q 1308 1072 1283 1072 l 836 -225 l 635 -225 l 974 707 l 632 349 l 460 349 l 378 715 l 35 -225 l -167 -225 l 306 1072 q 416 1073 361 1072 q 526 1074 471 1074 l 635 594 l 1093 1074 l 1207 1074 l 1207 1074 z "},"N":{"ha":817,"x_min":-167,"x_max":1053,"o":"m 1053 1072 l 579 -225 l 371 -225 l 326 575 l 36 -225 l -167 -225 l 307 1072 q 411 1073 360 1072 q 515 1074 463 1074 l 558 272 l 850 1072 l 1053 1072 z "},"O":{"ha":1072,"x_min":21,"x_max":1121,"o":"m 378 872 q 574 1014 474 963 q 769 1074 674 1065 l 843 1074 q 995 1014 932 1065 q 1089 872 1058 963 q 1113 667 1121 781 q 1058 426 1104 553 q 937 185 1013 300 q 764 -21 861 71 q 548 -172 658 -119 q 335 -224 438 -224 q 158 -172 231 -224 q 53 -21 86 -119 q 29 185 21 71 q 83 426 38 300 q 205 667 129 553 q 378 872 281 781 m 735 878 q 610 842 676 878 q 483 744 544 806 q 368 600 421 682 q 282 426 315 518 q 242 253 249 335 q 252 109 235 171 q 309 11 269 47 q 407 -25 349 -25 q 531 11 465 -25 q 659 109 597 47 q 774 253 721 171 q 860 426 826 335 q 900 600 893 518 q 890 744 907 682 q 833 842 872 806 q 735 878 793 878 z "},"P":{"ha":775,"x_min":-167,"x_max":888,"o":"m 225 294 l 36 -225 l -167 -225 l 307 1072 l 642 1072 q 769 1042 715 1072 q 853 958 824 1011 q 885 835 882 906 q 858 683 888 764 q 775 532 829 603 q 653 408 721 461 q 510 325 586 356 q 358 294 433 294 l 225 294 m 297 493 l 431 493 q 499 508 464 493 q 565 549 533 524 q 621 610 596 575 q 660 683 646 644 q 674 757 674 722 q 663 817 675 792 q 626 858 650 843 q 569 874 603 874 l 436 874 l 297 493 z "},"Q":{"ha":1058,"x_min":21,"x_max":1121,"o":"m 764 -21 q 740 -42 753 -32 q 717 -62 728 -51 l 751 -225 l 549 -225 l 539 -175 q 335 -224 433 -224 q 158 -172 231 -224 q 53 -21 86 -119 q 29 185 21 71 q 83 426 38 300 q 205 667 129 553 q 378 872 281 781 q 574 1014 474 963 q 769 1074 674 1065 l 843 1074 q 995 1014 932 1065 q 1089 872 1058 963 q 1113 667 1121 781 q 1058 426 1104 553 q 937 185 1013 300 q 764 -21 861 71 m 676 126 q 781 264 733 188 q 860 426 828 340 q 900 600 893 518 q 890 744 907 682 q 833 842 872 806 q 735 878 793 878 q 610 842 676 878 q 483 744 544 806 q 368 600 421 682 q 282 426 315 518 q 242 253 249 335 q 252 109 235 171 q 309 11 269 47 q 407 -25 349 -25 q 501 -3 450 -25 l 417 394 l 619 394 l 676 126 z "},"R":{"ha":775,"x_min":-167,"x_max":888,"o":"m 858 683 q 780 538 831 606 q 665 417 729 469 q 528 333 600 365 q 383 296 456 301 l 494 -225 l 293 -225 l 197 219 l 36 -225 l -167 -225 l 307 1072 l 642 1072 q 769 1042 715 1072 q 853 958 824 1011 q 885 835 882 906 q 858 683 888 764 m 431 493 q 499 508 464 493 q 565 549 533 524 q 621 610 596 575 q 660 683 646 644 q 674 757 674 722 q 663 817 675 792 q 626 858 650 843 q 569 874 603 874 l 436 874 l 297 493 l 431 493 z "},"S":{"ha":728,"x_min":-125,"x_max":867,"o":"m 624 160 q 548 8 601 81 q 418 -122 494 -65 q 303 -188 364 -162 q 181 -225 243 -214 q 113 -232 151 -231 q 33 -225 75 -233 q -31 -203 -7 -217 q -61 -187 -56 -190 q -101 -151 -86 -169 q -125 -117 -117 -132 l 71 15 q 171 -33 97 -31 q 253 -21 211 -35 q 328 18 294 -7 q 386 75 363 43 q 419 142 410 107 q 422 208 429 178 q 392 260 415 239 q 358 287 376 274 q 318 315 339 300 q 249 365 285 338 q 185 429 213 393 q 146 513 158 465 q 144 625 133 561 q 221 806 161 717 q 372 964 281 896 q 403 985 388 975 q 429 1001 418 994 q 456 1017 443 1010 q 556 1059 513 1047 q 622 1074 600 1071 q 694 1079 663 1081 q 749 1074 726 1078 q 822 1050 793 1065 q 867 1022 850 1035 l 699 854 q 678 867 692 860 q 642 878 665 875 q 555 871 601 885 q 464 825 508 857 q 390 749 419 792 q 353 661 361 706 q 355 611 349 633 q 378 569 361 589 q 419 531 394 550 q 476 489 444 511 q 522 458 500 474 q 564 424 544 442 q 629 308 614 376 q 624 160 644 239 z "},"T":{"ha":603,"x_min":167,"x_max":1186,"o":"m 1113 872 l 768 872 l 368 -225 l 167 -225 l 565 872 l 221 872 l 294 1074 l 1186 1074 l 1113 872 l 1113 872 z "},"U":{"ha":918,"x_min":-61,"x_max":1154,"o":"m 257 -224 q 102 -194 169 -224 q -5 -115 35 -165 q -53 3 -44 -64 q -33 147 -61 71 l 304 1072 l 503 1072 l 165 147 q 160 81 153 113 q 189 26 167 50 q 247 -11 211 3 q 329 -25 283 -25 q 422 -11 375 -25 q 508 26 468 3 q 576 81 547 50 q 618 147 606 113 l 956 1072 l 1154 1072 l 817 147 q 731 3 789 71 q 597 -115 674 -64 q 433 -194 521 -165 q 257 -224 344 -224 z "},"V":{"ha":969,"x_min":222,"x_max":1303,"o":"m 1100 1072 l 1303 1072 l 425 -225 l 222 -225 l 290 1072 l 492 1072 l 442 99 l 1100 1072 l 1100 1072 z "},"W":{"ha":1561,"x_min":222,"x_max":1894,"o":"m 1894 1072 l 1032 -203 l 1017 -225 l 829 -225 l 831 -203 l 864 446 l 425 -203 l 410 -225 l 222 -225 l 224 -203 l 289 1072 l 492 1072 l 442 121 l 881 769 l 896 1072 l 1086 1072 l 1099 1072 l 1288 1072 l 1083 769 l 1049 121 l 1693 1072 l 1894 1072 l 1894 1072 z "},"X":{"ha":781,"x_min":-167,"x_max":1142,"o":"m 1142 1072 l 589 424 l 669 -225 l 467 -225 l 413 217 l 35 -225 l -167 -225 l 386 424 l 306 1072 l 508 1072 l 563 631 l 939 1072 l 1142 1072 l 1142 1072 z "},"Y":{"ha":728,"x_min":125,"x_max":1117,"o":"m 1117 1072 l 564 424 l 328 -225 l 125 -225 l 361 424 l 281 1072 l 483 1072 l 538 631 l 914 1072 l 1117 1072 l 1117 1072 z "},"Z":{"ha":839,"x_min":-167,"x_max":1075,"o":"m 1075 1074 l 1001 872 l 103 -24 l 675 -24 l 601 -225 l -167 -225 l -93 -24 l 806 872 l 233 872 l 306 1074 l 1075 1074 l 1075 1074 z "},"a":{"ha":674,"x_min":28,"x_max":785,"o":"m 583 715 l 785 715 l 524 -1 l 322 -1 l 329 18 q 225 -1 275 -1 q 118 27 163 -1 q 51 104 74 56 q 28 218 28 153 q 56 357 28 283 q 130 497 82 432 q 236 611 178 563 q 359 688 294 660 q 486 715 424 715 q 576 696 535 715 l 583 715 m 494 546 q 494 574 501 563 q 469 586 486 586 l 407 586 q 375 574 390 586 q 353 546 360 563 l 215 169 q 217 141 208 153 q 242 129 225 129 l 303 129 q 335 141 319 129 q 358 169 351 153 l 494 546 z "},"b":{"ha":660,"x_min":-83,"x_max":672,"o":"m 476 715 q 583 688 539 715 q 649 611 626 660 q 672 497 672 563 q 646 357 672 432 q 571 218 618 283 q 465 104 524 153 q 342 27 407 56 q 215 -1 278 -1 q 125 18 167 -1 l 118 -1 l -83 -1 l 308 1075 l 510 1075 l 372 696 q 476 715 426 715 m 503 546 q 501 574 510 563 q 476 586 493 586 l 415 586 q 383 574 399 586 q 360 546 367 563 l 222 169 q 224 141 217 153 q 249 129 232 129 l 311 129 q 343 141 328 129 q 365 169 358 153 l 503 546 z "},"c":{"ha":656,"x_min":29,"x_max":683,"o":"m 479 496 l 497 546 q 497 574 504 563 q 472 586 489 586 l 410 586 q 377 574 393 586 q 354 546 361 563 l 322 454 l 249 254 l 218 169 q 219 141 211 153 q 243 129 226 129 l 306 129 q 338 141 322 129 q 360 169 354 153 l 376 214 l 578 214 q 501 127 543 167 q 414 59 460 88 q 319 15 368 31 q 225 -1 271 -1 q 119 27 163 -1 q 52 104 75 56 q 29 218 29 153 q 56 357 29 283 q 130 497 82 432 q 236 611 178 563 q 359 688 294 660 q 486 715 424 715 q 632 654 581 715 q 682 496 683 593 l 479 496 z "},"d":{"ha":665,"x_min":28,"x_max":915,"o":"m 714 1075 l 915 1075 l 524 -1 l 322 -1 l 329 18 q 225 -1 275 -1 q 118 27 163 -1 q 51 104 74 56 q 28 218 28 153 q 56 357 28 283 q 130 497 82 432 q 236 611 178 563 q 359 688 294 660 q 486 715 424 715 q 576 696 535 715 l 714 1075 m 478 546 q 477 574 485 563 q 453 586 469 586 l 390 586 q 358 574 374 586 q 336 546 342 563 l 199 169 q 199 141 192 153 q 224 129 207 129 l 286 129 q 319 141 303 129 q 342 169 335 153 l 478 546 z "},"e":{"ha":654,"x_min":29,"x_max":682,"o":"m 486 715 q 592 688 549 715 q 659 611 636 660 q 681 497 682 563 q 654 357 681 432 q 638 334 650 343 q 611 325 625 325 l 296 325 q 264 303 274 325 l 240 238 q 256 215 233 215 l 578 215 q 501 127 543 167 q 414 59 460 88 q 319 15 368 31 q 225 -1 271 -1 q 119 27 163 -1 q 52 104 75 56 q 29 218 29 153 q 56 357 29 283 q 130 497 82 432 q 236 611 178 563 q 359 688 294 660 q 486 715 424 715 m 540 526 q 540 548 546 539 q 521 557 535 557 l 388 557 q 363 548 375 557 q 346 526 350 539 l 313 435 q 313 413 307 422 q 332 404 319 404 l 465 404 q 490 413 478 404 q 507 435 503 422 l 540 526 z "},"f":{"ha":453,"x_min":-83,"x_max":772,"o":"m 413 807 q 414 778 406 790 q 439 767 422 767 l 589 767 l 544 649 l 396 649 q 363 637 379 649 q 340 607 347 625 l 118 -1 l -83 -1 l 253 924 q 286 982 264 954 q 336 1031 308 1010 q 396 1063 364 1051 q 460 1075 428 1075 l 475 1075 l 510 1075 l 772 1075 l 713 910 l 490 910 q 458 898 474 910 q 435 869 442 886 l 413 807 l 413 807 z "},"g":{"ha":676,"x_min":-167,"x_max":788,"o":"m 665 382 q 657 357 663 369 q 652 344 654 350 q 647 332 650 339 l 458 -187 l 457 -187 q 382 -331 429 -264 q 277 -446 335 -397 q 155 -523 219 -494 q 28 -551 90 -551 q -78 -523 -35 -551 q -144 -446 -122 -494 q -165 -331 -167 -397 q -136 -187 -164 -264 l 63 -187 q 47 -253 50 -224 q 51 -306 44 -283 q 70 -340 57 -328 q 100 -353 83 -353 q 135 -342 115 -353 q 174 -314 154 -332 q 213 -271 194 -296 q 246 -215 232 -246 l 332 18 q 228 -1 278 -1 q 122 27 165 -1 q 55 104 78 56 q 32 218 32 153 q 60 357 32 283 q 133 497 86 432 q 239 611 181 563 q 362 688 297 660 q 489 715 426 715 q 578 696 539 715 l 586 717 l 788 717 l 665 382 m 499 546 q 497 574 506 563 q 472 586 489 586 l 411 586 q 378 574 394 586 q 356 546 363 563 l 218 169 q 219 141 211 153 q 244 129 228 129 l 306 129 q 338 141 322 129 q 361 169 354 153 l 499 546 z "},"h":{"ha":589,"x_min":-83,"x_max":681,"o":"m 601 715 q 662 686 643 715 q 665 615 681 657 l 440 -1 l 261 -1 l 265 7 l 461 546 q 460 574 468 563 q 435 586 451 586 l 374 586 q 341 574 357 586 q 318 546 325 563 l 122 7 q 121 3 121 4 q 119 -1 121 1 l -83 -1 l 308 1075 l 511 1075 l 350 632 q 395 692 363 668 q 463 715 428 715 l 601 715 l 601 715 z "},"i":{"ha":269,"x_min":-83,"x_max":381,"o":"m 119 -1 l -83 -1 l 178 715 l 381 715 l 119 -1 z "},"j":{"ha":267,"x_min":-576,"x_max":378,"o":"m 176 717 l 378 717 l 49 -187 l 47 -187 q -28 -331 19 -264 q -133 -446 -75 -397 q -255 -523 -190 -494 q -382 -551 -319 -551 q -488 -523 -444 -551 q -554 -446 -532 -494 q -575 -331 -576 -397 q -546 -187 -574 -264 l -347 -187 q -362 -253 -360 -224 q -359 -306 -365 -283 q -340 -340 -353 -328 q -310 -353 -326 -353 q -275 -342 -294 -353 q -235 -314 -256 -332 q -197 -271 -215 -296 q -164 -215 -178 -246 l 176 717 z "},"k":{"ha":647,"x_min":-83,"x_max":758,"o":"m 354 646 l 458 715 l 758 715 l 486 533 l 476 -1 l 265 -1 l 274 392 l 257 381 l 118 -1 l -83 -1 l 308 1075 l 510 1075 l 354 646 l 354 646 z "},"l":{"ha":275,"x_min":-83,"x_max":511,"o":"m 308 1075 l 511 1075 l 119 -1 l -83 -1 l 308 1075 z "},"m":{"ha":910,"x_min":-83,"x_max":1001,"o":"m 922 715 q 983 686 964 715 q 986 615 1001 657 l 761 -1 l 582 -1 q 585 7 585 4 l 781 546 q 780 574 788 563 q 756 586 772 586 l 693 586 q 661 574 676 586 q 639 546 646 563 l 443 7 q 440 -1 440 1 l 260 -1 l 264 7 l 460 546 q 459 574 467 563 q 435 586 451 586 l 372 586 q 340 574 356 586 q 317 546 324 563 l 121 7 q 119 -1 119 4 l 118 -1 l -83 -1 l 176 715 l 379 715 l 349 632 q 394 692 361 668 q 463 715 428 715 l 600 715 q 660 686 642 715 q 664 615 679 657 l 671 632 q 716 692 683 668 q 783 715 749 715 l 922 715 l 922 715 z "},"n":{"ha":589,"x_min":-83,"x_max":681,"o":"m 601 715 q 662 686 643 715 q 665 615 681 657 l 440 -1 l 261 -1 l 265 7 l 461 546 q 460 574 468 563 q 435 586 451 586 l 374 586 q 341 574 357 586 q 318 546 325 563 l 122 7 q 121 3 121 4 q 119 -1 121 1 l -83 -1 l 178 715 l 381 715 l 350 632 q 395 692 363 668 q 463 715 428 715 l 601 715 l 601 715 z "},"o":{"ha":668,"x_min":29,"x_max":682,"o":"m 486 715 q 592 688 549 715 q 659 611 636 660 q 681 497 682 563 q 654 357 681 432 q 581 218 628 283 q 475 104 533 153 q 352 27 417 56 q 225 -1 288 -1 q 119 27 163 -1 q 52 104 75 56 q 29 218 29 153 q 56 357 29 283 q 130 497 82 432 q 236 611 178 563 q 359 688 294 660 q 486 715 424 715 m 496 546 q 494 574 501 563 q 469 586 486 586 l 408 586 q 376 574 392 586 q 353 546 360 563 l 215 169 q 217 141 208 153 q 242 129 225 129 l 303 129 q 335 141 319 129 q 358 169 351 153 l 496 546 z "},"p":{"ha":660,"x_min":-285,"x_max":674,"o":"m 478 715 q 584 688 540 715 q 651 611 628 660 q 673 497 674 563 q 646 357 672 432 q 572 218 618 283 q 467 104 525 153 q 344 27 408 56 q 217 -1 279 -1 q 126 18 168 -1 l -83 -556 l -285 -556 l 178 715 l 381 715 l 374 696 q 478 715 428 715 m 503 546 q 502 574 510 563 q 478 586 494 586 l 415 586 q 383 574 399 586 q 361 546 368 563 l 224 169 q 225 141 217 153 q 250 129 233 129 l 311 129 q 344 141 328 129 q 367 169 360 153 l 503 546 z "},"q":{"ha":674,"x_min":28,"x_max":785,"o":"m 583 715 l 785 715 l 322 -556 l 121 -556 l 329 18 q 225 -1 275 -1 q 118 27 163 -1 q 51 104 74 56 q 28 218 28 153 q 56 357 28 283 q 130 497 82 432 q 236 611 178 563 q 359 688 294 660 q 486 715 424 715 q 576 696 535 715 l 583 715 m 478 546 q 477 574 485 563 q 453 586 469 586 l 390 586 q 358 574 374 586 q 336 546 343 563 l 199 169 q 199 141 192 153 q 225 129 207 129 l 286 129 q 319 141 303 129 q 342 169 335 153 l 478 546 z "},"r":{"ha":589,"x_min":-83,"x_max":681,"o":"m 601 715 q 662 686 643 715 q 665 615 681 657 l 613 469 l 432 469 l 436 478 l 461 546 q 460 574 468 563 q 435 586 451 586 l 374 586 q 341 574 357 586 q 318 546 325 563 l 122 7 q 121 3 121 4 q 119 -1 121 1 l -83 -1 l 178 715 l 381 715 l 350 632 q 395 692 363 668 q 463 715 428 715 l 601 715 l 601 715 z "},"s":{"ha":483,"x_min":-42,"x_max":525,"o":"m 382 403 q 423 332 414 375 q 418 240 432 289 q 372 146 406 192 q 292 64 339 100 q 198 15 247 32 q 100 -3 149 -3 l 93 -3 q 12 17 47 -1 q -42 69 -24 36 l 154 201 q 171 196 160 196 q 201 204 190 196 q 214 221 211 213 q 215 229 215 224 q 210 239 215 235 q 195 250 203 244 q 179 263 188 256 q 142 289 163 274 q 107 326 122 304 q 84 376 92 347 q 83 446 76 406 q 131 557 94 503 q 222 653 167 611 q 337 711 276 693 q 450 719 397 729 q 496 706 478 715 q 525 688 514 696 l 357 521 q 354 522 356 522 q 347 524 350 522 q 327 522 336 526 q 314 514 318 517 q 302 503 310 511 q 292 482 294 494 q 305 460 289 472 q 338 436 321 447 q 382 403 363 419 z "},"t":{"ha":499,"x_min":-42,"x_max":526,"o":"m 190 204 q 192 176 183 188 q 217 164 200 164 l 411 164 l 351 -1 l 115 -1 l 81 -1 l 65 -1 q 10 10 33 -1 q -26 43 -12 22 q -40 91 -39 64 q -31 150 -42 118 l 306 1075 l 507 1075 l 392 756 q 392 727 385 739 q 417 715 400 715 l 526 715 l 483 597 l 374 597 q 341 585 357 597 q 319 557 325 574 l 190 204 l 190 204 z "},"u":{"ha":589,"x_min":-64,"x_max":700,"o":"m 700 715 l 439 -1 l 236 -1 l 267 82 q 221 23 254 47 q 153 -1 188 -1 l 15 -1 q -45 28 -26 -1 q -49 99 -64 57 l 176 715 l 356 715 q 353 712 354 713 q 351 708 353 711 l 156 169 q 157 141 149 153 q 182 129 165 129 l 243 129 q 276 141 260 129 q 299 169 292 153 l 494 708 q 496 712 496 711 q 497 715 496 713 l 700 715 z "},"v":{"ha":589,"x_min":28,"x_max":700,"o":"m 292 333 l 499 715 l 700 715 l 313 -1 l 229 -1 l 111 -1 l 28 -1 l 161 715 l 364 715 l 292 333 l 292 333 z "},"w":{"ha":861,"x_min":28,"x_max":972,"o":"m 610 419 l 769 715 l 972 715 l 585 -1 l 531 -1 l 383 -1 l 329 -1 l 356 143 l 278 -1 l 229 -1 l 76 -1 l 28 -1 l 163 715 l 364 715 l 311 435 l 464 715 l 665 715 l 610 419 l 610 419 z "},"x":{"ha":647,"x_min":-83,"x_max":758,"o":"m 557 715 l 758 715 l 439 357 l 497 -1 l 296 -1 l 268 167 l 118 -1 l -83 -1 l 236 357 l 178 715 l 379 715 l 407 549 l 557 715 l 557 715 z "},"y":{"ha":663,"x_min":-181,"x_max":774,"o":"m 572 717 l 774 717 l 444 -187 l 443 -187 q 368 -331 415 -264 q 263 -446 321 -397 q 141 -523 206 -494 q 14 -551 76 -551 q -92 -523 -49 -551 q -158 -446 -136 -494 q -179 -331 -181 -397 q -150 -187 -178 -264 l 49 -187 q 33 -253 36 -224 q 37 -306 31 -283 q 56 -340 43 -328 q 86 -353 69 -353 q 121 -342 101 -353 q 160 -314 140 -332 q 199 -271 181 -296 q 232 -215 218 -246 l 340 82 q 295 23 328 47 q 228 -1 263 -1 l 18 -1 q -42 28 -24 -1 q -46 99 -61 57 l 178 715 l 358 715 q 356 712 357 713 q 354 708 356 711 l 158 169 q 159 141 151 153 q 183 129 167 129 l 318 129 q 350 141 335 129 q 372 169 365 153 l 568 708 q 571 715 571 714 l 572 717 z "},"z":{"ha":708,"x_min":-83,"x_max":819,"o":"m 819 717 l 746 514 l 242 201 l 632 201 l 558 -1 l -83 -1 l -10 201 l 494 514 l 104 514 l 178 717 l 819 717 l 819 717 z "},",":{"ha":244,"x_min":-56,"x_max":161,"o":"m 3 163 l 161 163 l 103 4 q 74 -46 90 -24 q 38 -80 58 -65 q -11 -94 17 -94 q 32 -46 17 -68 q 47 -11 44 -26 q 24 4 50 4 l -56 4 l 3 163 z "},".":{"ha":244,"x_min":-69,"x_max":147,"o":"m -69 -4 l -11 154 l 147 154 l 89 -4 l -69 -4 l -69 -4 z "},"!":{"ha":851,"x_min":167,"x_max":796,"o":"m 685 672 q 763 646 731 672 q 796 582 796 619 l 796 358 q 763 294 796 321 q 685 268 731 268 l 278 268 q 199 294 232 268 q 167 358 167 321 l 167 582 q 199 646 167 619 q 278 672 232 672 l 685 672 m 772 582 q 747 632 772 611 q 685 653 721 653 l 278 653 q 216 632 242 653 q 190 582 190 611 l 190 358 q 216 308 190 329 q 278 288 242 288 l 685 288 q 747 308 721 288 q 772 358 772 329 l 772 582 m 319 481 l 285 481 l 285 565 l 369 565 l 369 544 l 319 544 l 319 529 l 364 529 l 364 508 l 319 508 l 319 481 m 417 481 l 381 481 l 381 565 l 432 565 q 479 533 479 565 q 460 507 479 515 l 482 481 l 444 481 l 426 503 l 417 503 l 417 481 m 417 524 l 429 524 q 444 533 444 524 q 429 543 444 543 l 417 543 l 417 524 m 581 481 l 493 481 l 493 565 l 579 565 l 579 544 l 528 544 l 528 535 l 572 535 l 572 514 l 528 514 l 528 503 l 581 503 l 581 481 m 682 481 l 594 481 l 594 565 l 681 565 l 681 544 l 629 544 l 629 535 l 674 535 l 674 514 l 629 514 l 629 503 l 682 503 l 682 481 m 319 425 l 340 425 l 314 376 l 294 376 l 268 425 l 290 425 l 304 396 l 319 425 m 363 389 l 393 389 l 393 376 l 342 376 l 342 425 l 392 425 l 392 413 l 363 413 l 363 407 l 389 407 l 389 394 l 363 394 l 363 389 m 458 407 q 447 392 458 396 l 460 376 l 438 376 l 428 389 l 422 389 l 422 376 l 401 376 l 401 425 l 431 425 q 458 407 458 425 m 429 401 q 438 407 438 401 q 429 413 438 413 l 422 413 l 422 401 l 429 401 m 485 411 q 490 408 485 408 q 501 406 494 407 q 513 401 507 404 q 518 392 518 399 q 489 375 518 375 q 463 379 472 375 l 469 392 q 490 388 478 388 q 497 390 497 388 q 492 393 497 392 q 480 396 486 394 q 469 400 474 397 q 464 410 464 403 q 492 426 464 426 q 515 422 507 426 l 510 410 q 492 414 499 414 q 485 411 485 414 m 524 425 l 544 425 l 544 376 l 524 376 l 524 425 m 588 426 q 613 419 603 426 q 622 400 622 411 q 613 382 622 389 q 588 375 603 375 q 563 382 572 375 q 553 400 553 389 q 588 426 553 426 m 588 388 q 601 400 601 388 q 588 413 601 413 q 574 400 574 413 q 588 388 574 388 m 669 425 l 690 425 l 690 376 l 672 376 l 650 399 l 650 376 l 629 376 l 629 425 l 646 425 l 669 403 l 669 425 z "},"\"":{"ha":851,"x_min":167,"x_max":796,"o":"m 685 672 q 763 646 731 672 q 796 582 796 619 l 796 358 q 763 294 796 321 q 685 268 731 268 l 278 268 q 199 294 232 268 q 167 358 167 321 l 167 582 q 199 646 167 619 q 278 672 232 672 l 685 672 m 772 582 q 747 632 772 611 q 685 653 721 653 l 278 653 q 216 632 242 653 q 190 582 190 611 l 190 358 q 216 308 190 329 q 278 288 242 288 l 685 288 q 747 308 721 288 q 772 358 772 329 l 772 582 m 319 481 l 285 481 l 285 565 l 369 565 l 369 544 l 319 544 l 319 529 l 364 529 l 364 508 l 319 508 l 319 481 m 417 481 l 381 481 l 381 565 l 432 565 q 479 533 479 565 q 460 507 479 515 l 482 481 l 444 481 l 426 503 l 417 503 l 417 481 m 417 524 l 429 524 q 444 533 444 524 q 429 543 444 543 l 417 543 l 417 524 m 581 481 l 493 481 l 493 565 l 579 565 l 579 544 l 528 544 l 528 535 l 572 535 l 572 514 l 528 514 l 528 503 l 581 503 l 581 481 m 682 481 l 594 481 l 594 565 l 681 565 l 681 544 l 629 544 l 629 535 l 674 535 l 674 514 l 629 514 l 629 503 l 682 503 l 682 481 m 319 425 l 340 425 l 314 376 l 294 376 l 268 425 l 290 425 l 304 396 l 319 425 m 363 389 l 393 389 l 393 376 l 342 376 l 342 425 l 392 425 l 392 413 l 363 413 l 363 407 l 389 407 l 389 394 l 363 394 l 363 389 m 458 407 q 447 392 458 396 l 460 376 l 438 376 l 428 389 l 422 389 l 422 376 l 401 376 l 401 425 l 431 425 q 458 407 458 425 m 429 401 q 438 407 438 401 q 429 413 438 413 l 422 413 l 422 401 l 429 401 m 485 411 q 490 408 485 408 q 501 406 494 407 q 513 401 507 404 q 518 392 518 399 q 489 375 518 375 q 463 379 472 375 l 469 392 q 490 388 478 388 q 497 390 497 388 q 492 393 497 392 q 480 396 486 394 q 469 400 474 397 q 464 410 464 403 q 492 426 464 426 q 515 422 507 426 l 510 410 q 492 414 499 414 q 485 411 485 414 m 524 425 l 544 425 l 544 376 l 524 376 l 524 425 m 588 426 q 613 419 603 426 q 622 400 622 411 q 613 382 622 389 q 588 375 603 375 q 563 382 572 375 q 553 400 553 389 q 588 426 553 426 m 588 388 q 601 400 601 388 q 588 413 601 413 q 574 400 574 413 q 588 388 574 388 m 669 425 l 690 425 l 690 376 l 672 376 l 650 399 l 650 376 l 629 376 l 629 425 l 646 425 l 669 403 l 669 425 z "},"#":{"ha":851,"x_min":167,"x_max":796,"o":"m 685 672 q 763 646 731 672 q 796 582 796 619 l 796 358 q 763 294 796 321 q 685 268 731 268 l 278 268 q 199 294 232 268 q 167 358 167 321 l 167 582 q 199 646 167 619 q 278 672 232 672 l 685 672 m 772 582 q 747 632 772 611 q 685 653 721 653 l 278 653 q 216 632 242 653 q 190 582 190 611 l 190 358 q 216 308 190 329 q 278 288 242 288 l 685 288 q 747 308 721 288 q 772 358 772 329 l 772 582 m 319 481 l 285 481 l 285 565 l 369 565 l 369 544 l 319 544 l 319 529 l 364 529 l 364 508 l 319 508 l 319 481 m 417 481 l 381 481 l 381 565 l 432 565 q 479 533 479 565 q 460 507 479 515 l 482 481 l 444 481 l 426 503 l 417 503 l 417 481 m 417 524 l 429 524 q 444 533 444 524 q 429 543 444 543 l 417 543 l 417 524 m 581 481 l 493 481 l 493 565 l 579 565 l 579 544 l 528 544 l 528 535 l 572 535 l 572 514 l 528 514 l 528 503 l 581 503 l 581 481 m 682 481 l 594 481 l 594 565 l 681 565 l 681 544 l 629 544 l 629 535 l 674 535 l 674 514 l 629 514 l 629 503 l 682 503 l 682 481 m 319 425 l 340 425 l 314 376 l 294 376 l 268 425 l 290 425 l 304 396 l 319 425 m 363 389 l 393 389 l 393 376 l 342 376 l 342 425 l 392 425 l 392 413 l 363 413 l 363 407 l 389 407 l 389 394 l 363 394 l 363 389 m 458 407 q 447 392 458 396 l 460 376 l 438 376 l 428 389 l 422 389 l 422 376 l 401 376 l 401 425 l 431 425 q 458 407 458 425 m 429 401 q 438 407 438 401 q 429 413 438 413 l 422 413 l 422 401 l 429 401 m 485 411 q 490 408 485 408 q 501 406 494 407 q 513 401 507 404 q 518 392 518 399 q 489 375 518 375 q 463 379 472 375 l 469 392 q 490 388 478 388 q 497 390 497 388 q 492 393 497 392 q 480 396 486 394 q 469 400 474 397 q 464 410 464 403 q 492 426 464 426 q 515 422 507 426 l 510 410 q 492 414 499 414 q 485 411 485 414 m 524 425 l 544 425 l 544 376 l 524 376 l 524 425 m 588 426 q 613 419 603 426 q 622 400 622 411 q 613 382 622 389 q 588 375 603 375 q 563 382 572 375 q 553 400 553 389 q 588 426 553 426 m 588 388 q 601 400 601 388 q 588 413 601 413 q 574 400 574 413 q 588 388 574 388 m 669 425 l 690 425 l 690 376 l 672 376 l 650 399 l 650 376 l 629 376 l 629 425 l 646 425 l 669 403 l 669 425 z "},"$":{"ha":851,"x_min":167,"x_max":796,"o":"m 685 672 q 763 646 731 672 q 796 582 796 619 l 796 358 q 763 294 796 321 q 685 268 731 268 l 278 268 q 199 294 232 268 q 167 358 167 321 l 167 582 q 199 646 167 619 q 278 672 232 672 l 685 672 m 772 582 q 747 632 772 611 q 685 653 721 653 l 278 653 q 216 632 242 653 q 190 582 190 611 l 190 358 q 216 308 190 329 q 278 288 242 288 l 685 288 q 747 308 721 288 q 772 358 772 329 l 772 582 m 319 481 l 285 481 l 285 565 l 369 565 l 369 544 l 319 544 l 319 529 l 364 529 l 364 508 l 319 508 l 319 481 m 417 481 l 381 481 l 381 565 l 432 565 q 479 533 479 565 q 460 507 479 515 l 482 481 l 444 481 l 426 503 l 417 503 l 417 481 m 417 524 l 429 524 q 444 533 444 524 q 429 543 444 543 l 417 543 l 417 524 m 581 481 l 493 481 l 493 565 l 579 565 l 579 544 l 528 544 l 528 535 l 572 535 l 572 514 l 528 514 l 528 503 l 581 503 l 581 481 m 682 481 l 594 481 l 594 565 l 681 565 l 681 544 l 629 544 l 629 535 l 674 535 l 674 514 l 629 514 l 629 503 l 682 503 l 682 481 m 319 425 l 340 425 l 314 376 l 294 376 l 268 425 l 290 425 l 304 396 l 319 425 m 363 389 l 393 389 l 393 376 l 342 376 l 342 425 l 392 425 l 392 413 l 363 413 l 363 407 l 389 407 l 389 394 l 363 394 l 363 389 m 458 407 q 447 392 458 396 l 460 376 l 438 376 l 428 389 l 422 389 l 422 376 l 401 376 l 401 425 l 431 425 q 458 407 458 425 m 429 401 q 438 407 438 401 q 429 413 438 413 l 422 413 l 422 401 l 429 401 m 485 411 q 490 408 485 408 q 501 406 494 407 q 513 401 507 404 q 518 392 518 399 q 489 375 518 375 q 463 379 472 375 l 469 392 q 490 388 478 388 q 497 390 497 388 q 492 393 497 392 q 480 396 486 394 q 469 400 474 397 q 464 410 464 403 q 492 426 464 426 q 515 422 507 426 l 510 410 q 492 414 499 414 q 485 411 485 414 m 524 425 l 544 425 l 544 376 l 524 376 l 524 425 m 588 426 q 613 419 603 426 q 622 400 622 411 q 613 382 622 389 q 588 375 603 375 q 563 382 572 375 q 553 400 553 389 q 588 426 553 426 m 588 388 q 601 400 601 388 q 588 413 601 413 q 574 400 574 413 q 588 388 574 388 m 669 425 l 690 425 l 690 376 l 672 376 l 650 399 l 650 376 l 629 376 l 629 425 l 646 425 l 669 403 l 669 425 z "},"%":{"ha":851,"x_min":167,"x_max":796,"o":"m 685 672 q 763 646 731 672 q 796 582 796 619 l 796 358 q 763 294 796 321 q 685 268 731 268 l 278 268 q 199 294 232 268 q 167 358 167 321 l 167 582 q 199 646 167 619 q 278 672 232 672 l 685 672 m 772 582 q 747 632 772 611 q 685 653 721 653 l 278 653 q 216 632 242 653 q 190 582 190 611 l 190 358 q 216 308 190 329 q 278 288 242 288 l 685 288 q 747 308 721 288 q 772 358 772 329 l 772 582 m 319 481 l 285 481 l 285 565 l 369 565 l 369 544 l 319 544 l 319 529 l 364 529 l 364 508 l 319 508 l 319 481 m 417 481 l 381 481 l 381 565 l 432 565 q 479 533 479 565 q 460 507 479 515 l 482 481 l 444 481 l 426 503 l 417 503 l 417 481 m 417 524 l 429 524 q 444 533 444 524 q 429 543 444 543 l 417 543 l 417 524 m 581 481 l 493 481 l 493 565 l 579 565 l 579 544 l 528 544 l 528 535 l 572 535 l 572 514 l 528 514 l 528 503 l 581 503 l 581 481 m 682 481 l 594 481 l 594 565 l 681 565 l 681 544 l 629 544 l 629 535 l 674 535 l 674 514 l 629 514 l 629 503 l 682 503 l 682 481 m 319 425 l 340 425 l 314 376 l 294 376 l 268 425 l 290 425 l 304 396 l 319 425 m 363 389 l 393 389 l 393 376 l 342 376 l 342 425 l 392 425 l 392 413 l 363 413 l 363 407 l 389 407 l 389 394 l 363 394 l 363 389 m 458 407 q 447 392 458 396 l 460 376 l 438 376 l 428 389 l 422 389 l 422 376 l 401 376 l 401 425 l 431 425 q 458 407 458 425 m 429 401 q 438 407 438 401 q 429 413 438 413 l 422 413 l 422 401 l 429 401 m 485 411 q 490 408 485 408 q 501 406 494 407 q 513 401 507 404 q 518 392 518 399 q 489 375 518 375 q 463 379 472 375 l 469 392 q 490 388 478 388 q 497 390 497 388 q 492 393 497 392 q 480 396 486 394 q 469 400 474 397 q 464 410 464 403 q 492 426 464 426 q 515 422 507 426 l 510 410 q 492 414 499 414 q 485 411 485 414 m 524 425 l 544 425 l 544 376 l 524 376 l 524 425 m 588 426 q 613 419 603 426 q 622 400 622 411 q 613 382 622 389 q 588 375 603 375 q 563 382 572 375 q 553 400 553 389 q 588 426 553 426 m 588 388 q 601 400 601 388 q 588 413 601 413 q 574 400 574 413 q 588 388 574 388 m 669 425 l 690 425 l 690 376 l 672 376 l 650 399 l 650 376 l 629 376 l 629 425 l 646 425 l 669 403 l 669 425 z "},"&":{"ha":851,"x_min":167,"x_max":796,"o":"m 685 672 q 763 646 731 672 q 796 582 796 619 l 796 358 q 763 294 796 321 q 685 268 731 268 l 278 268 q 199 294 232 268 q 167 358 167 321 l 167 582 q 199 646 167 619 q 278 672 232 672 l 685 672 m 772 582 q 747 632 772 611 q 685 653 721 653 l 278 653 q 216 632 242 653 q 190 582 190 611 l 190 358 q 216 308 190 329 q 278 288 242 288 l 685 288 q 747 308 721 288 q 772 358 772 329 l 772 582 m 319 481 l 285 481 l 285 565 l 369 565 l 369 544 l 319 544 l 319 529 l 364 529 l 364 508 l 319 508 l 319 481 m 417 481 l 381 481 l 381 565 l 432 565 q 479 533 479 565 q 460 507 479 515 l 482 481 l 444 481 l 426 503 l 417 503 l 417 481 m 417 524 l 429 524 q 444 533 444 524 q 429 543 444 543 l 417 543 l 417 524 m 581 481 l 493 481 l 493 565 l 579 565 l 579 544 l 528 544 l 528 535 l 572 535 l 572 514 l 528 514 l 528 503 l 581 503 l 581 481 m 682 481 l 594 481 l 594 565 l 681 565 l 681 544 l 629 544 l 629 535 l 674 535 l 674 514 l 629 514 l 629 503 l 682 503 l 682 481 m 319 425 l 340 425 l 314 376 l 294 376 l 268 425 l 290 425 l 304 396 l 319 425 m 363 389 l 393 389 l 393 376 l 342 376 l 342 425 l 392 425 l 392 413 l 363 413 l 363 407 l 389 407 l 389 394 l 363 394 l 363 389 m 458 407 q 447 392 458 396 l 460 376 l 438 376 l 428 389 l 422 389 l 422 376 l 401 376 l 401 425 l 431 425 q 458 407 458 425 m 429 401 q 438 407 438 401 q 429 413 438 413 l 422 413 l 422 401 l 429 401 m 485 411 q 490 408 485 408 q 501 406 494 407 q 513 401 507 404 q 518 392 518 399 q 489 375 518 375 q 463 379 472 375 l 469 392 q 490 388 478 388 q 497 390 497 388 q 492 393 497 392 q 480 396 486 394 q 469 400 474 397 q 464 410 464 403 q 492 426 464 426 q 515 422 507 426 l 510 410 q 492 414 499 414 q 485 411 485 414 m 524 425 l 544 425 l 544 376 l 524 376 l 524 425 m 588 426 q 613 419 603 426 q 622 400 622 411 q 613 382 622 389 q 588 375 603 375 q 563 382 572 375 q 553 400 553 389 q 588 426 553 426 m 588 388 q 601 400 601 388 q 588 413 601 413 q 574 400 574 413 q 588 388 574 388 m 669 425 l 690 425 l 690 376 l 672 376 l 650 399 l 650 376 l 629 376 l 629 425 l 646 425 l 669 403 l 669 425 z "},"'":{"ha":851,"x_min":167,"x_max":796,"o":"m 685 672 q 763 646 731 672 q 796 582 796 619 l 796 358 q 763 294 796 321 q 685 268 731 268 l 278 268 q 199 294 232 268 q 167 358 167 321 l 167 582 q 199 646 167 619 q 278 672 232 672 l 685 672 m 772 582 q 747 632 772 611 q 685 653 721 653 l 278 653 q 216 632 242 653 q 190 582 190 611 l 190 358 q 216 308 190 329 q 278 288 242 288 l 685 288 q 747 308 721 288 q 772 358 772 329 l 772 582 m 319 481 l 285 481 l 285 565 l 369 565 l 369 544 l 319 544 l 319 529 l 364 529 l 364 508 l 319 508 l 319 481 m 417 481 l 381 481 l 381 565 l 432 565 q 479 533 479 565 q 460 507 479 515 l 482 481 l 444 481 l 426 503 l 417 503 l 417 481 m 417 524 l 429 524 q 444 533 444 524 q 429 543 444 543 l 417 543 l 417 524 m 581 481 l 493 481 l 493 565 l 579 565 l 579 544 l 528 544 l 528 535 l 572 535 l 572 514 l 528 514 l 528 503 l 581 503 l 581 481 m 682 481 l 594 481 l 594 565 l 681 565 l 681 544 l 629 544 l 629 535 l 674 535 l 674 514 l 629 514 l 629 503 l 682 503 l 682 481 m 319 425 l 340 425 l 314 376 l 294 376 l 268 425 l 290 425 l 304 396 l 319 425 m 363 389 l 393 389 l 393 376 l 342 376 l 342 425 l 392 425 l 392 413 l 363 413 l 363 407 l 389 407 l 389 394 l 363 394 l 363 389 m 458 407 q 447 392 458 396 l 460 376 l 438 376 l 428 389 l 422 389 l 422 376 l 401 376 l 401 425 l 431 425 q 458 407 458 425 m 429 401 q 438 407 438 401 q 429 413 438 413 l 422 413 l 422 401 l 429 401 m 485 411 q 490 408 485 408 q 501 406 494 407 q 513 401 507 404 q 518 392 518 399 q 489 375 518 375 q 463 379 472 375 l 469 392 q 490 388 478 388 q 497 390 497 388 q 492 393 497 392 q 480 396 486 394 q 469 400 474 397 q 464 410 464 403 q 492 426 464 426 q 515 422 507 426 l 510 410 q 492 414 499 414 q 485 411 485 414 m 524 425 l 544 425 l 544 376 l 524 376 l 524 425 m 588 426 q 613 419 603 426 q 622 400 622 411 q 613 382 622 389 q 588 375 603 375 q 563 382 572 375 q 553 400 553 389 q 588 426 553 426 m 588 388 q 601 400 601 388 q 588 413 601 413 q 574 400 574 413 q 588 388 574 388 m 669 425 l 690 425 l 690 376 l 672 376 l 650 399 l 650 376 l 629 376 l 629 425 l 646 425 l 669 403 l 669 425 z "},"(":{"ha":851,"x_min":167,"x_max":796,"o":"m 685 672 q 763 646 731 672 q 796 582 796 619 l 796 358 q 763 294 796 321 q 685 268 731 268 l 278 268 q 199 294 232 268 q 167 358 167 321 l 167 582 q 199 646 167 619 q 278 672 232 672 l 685 672 m 772 582 q 747 632 772 611 q 685 653 721 653 l 278 653 q 216 632 242 653 q 190 582 190 611 l 190 358 q 216 308 190 329 q 278 288 242 288 l 685 288 q 747 308 721 288 q 772 358 772 329 l 772 582 m 319 481 l 285 481 l 285 565 l 369 565 l 369 544 l 319 544 l 319 529 l 364 529 l 364 508 l 319 508 l 319 481 m 417 481 l 381 481 l 381 565 l 432 565 q 479 533 479 565 q 460 507 479 515 l 482 481 l 444 481 l 426 503 l 417 503 l 417 481 m 417 524 l 429 524 q 444 533 444 524 q 429 543 444 543 l 417 543 l 417 524 m 581 481 l 493 481 l 493 565 l 579 565 l 579 544 l 528 544 l 528 535 l 572 535 l 572 514 l 528 514 l 528 503 l 581 503 l 581 481 m 682 481 l 594 481 l 594 565 l 681 565 l 681 544 l 629 544 l 629 535 l 674 535 l 674 514 l 629 514 l 629 503 l 682 503 l 682 481 m 319 425 l 340 425 l 314 376 l 294 376 l 268 425 l 290 425 l 304 396 l 319 425 m 363 389 l 393 389 l 393 376 l 342 376 l 342 425 l 392 425 l 392 413 l 363 413 l 363 407 l 389 407 l 389 394 l 363 394 l 363 389 m 458 407 q 447 392 458 396 l 460 376 l 438 376 l 428 389 l 422 389 l 422 376 l 401 376 l 401 425 l 431 425 q 458 407 458 425 m 429 401 q 438 407 438 401 q 429 413 438 413 l 422 413 l 422 401 l 429 401 m 485 411 q 490 408 485 408 q 501 406 494 407 q 513 401 507 404 q 518 392 518 399 q 489 375 518 375 q 463 379 472 375 l 469 392 q 490 388 478 388 q 497 390 497 388 q 492 393 497 392 q 480 396 486 394 q 469 400 474 397 q 464 410 464 403 q 492 426 464 426 q 515 422 507 426 l 510 410 q 492 414 499 414 q 485 411 485 414 m 524 425 l 544 425 l 544 376 l 524 376 l 524 425 m 588 426 q 613 419 603 426 q 622 400 622 411 q 613 382 622 389 q 588 375 603 375 q 563 382 572 375 q 553 400 553 389 q 588 426 553 426 m 588 388 q 601 400 601 388 q 588 413 601 413 q 574 400 574 413 q 588 388 574 388 m 669 425 l 690 425 l 690 376 l 672 376 l 650 399 l 650 376 l 629 376 l 629 425 l 646 425 l 669 403 l 669 425 z "},")":{"ha":851,"x_min":167,"x_max":796,"o":"m 685 672 q 763 646 731 672 q 796 582 796 619 l 796 358 q 763 294 796 321 q 685 268 731 268 l 278 268 q 199 294 232 268 q 167 358 167 321 l 167 582 q 199 646 167 619 q 278 672 232 672 l 685 672 m 772 582 q 747 632 772 611 q 685 653 721 653 l 278 653 q 216 632 242 653 q 190 582 190 611 l 190 358 q 216 308 190 329 q 278 288 242 288 l 685 288 q 747 308 721 288 q 772 358 772 329 l 772 582 m 319 481 l 285 481 l 285 565 l 369 565 l 369 544 l 319 544 l 319 529 l 364 529 l 364 508 l 319 508 l 319 481 m 417 481 l 381 481 l 381 565 l 432 565 q 479 533 479 565 q 460 507 479 515 l 482 481 l 444 481 l 426 503 l 417 503 l 417 481 m 417 524 l 429 524 q 444 533 444 524 q 429 543 444 543 l 417 543 l 417 524 m 581 481 l 493 481 l 493 565 l 579 565 l 579 544 l 528 544 l 528 535 l 572 535 l 572 514 l 528 514 l 528 503 l 581 503 l 581 481 m 682 481 l 594 481 l 594 565 l 681 565 l 681 544 l 629 544 l 629 535 l 674 535 l 674 514 l 629 514 l 629 503 l 682 503 l 682 481 m 319 425 l 340 425 l 314 376 l 294 376 l 268 425 l 290 425 l 304 396 l 319 425 m 363 389 l 393 389 l 393 376 l 342 376 l 342 425 l 392 425 l 392 413 l 363 413 l 363 407 l 389 407 l 389 394 l 363 394 l 363 389 m 458 407 q 447 392 458 396 l 460 376 l 438 376 l 428 389 l 422 389 l 422 376 l 401 376 l 401 425 l 431 425 q 458 407 458 425 m 429 401 q 438 407 438 401 q 429 413 438 413 l 422 413 l 422 401 l 429 401 m 485 411 q 490 408 485 408 q 501 406 494 407 q 513 401 507 404 q 518 392 518 399 q 489 375 518 375 q 463 379 472 375 l 469 392 q 490 388 478 388 q 497 390 497 388 q 492 393 497 392 q 480 396 486 394 q 469 400 474 397 q 464 410 464 403 q 492 426 464 426 q 515 422 507 426 l 510 410 q 492 414 499 414 q 485 411 485 414 m 524 425 l 544 425 l 544 376 l 524 376 l 524 425 m 588 426 q 613 419 603 426 q 622 400 622 411 q 613 382 622 389 q 588 375 603 375 q 563 382 572 375 q 553 400 553 389 q 588 426 553 426 m 588 388 q 601 400 601 388 q 588 413 601 413 q 574 400 574 413 q 588 388 574 388 m 669 425 l 690 425 l 690 376 l 672 376 l 650 399 l 650 376 l 629 376 l 629 425 l 646 425 l 669 403 l 669 425 z "},"*":{"ha":851,"x_min":167,"x_max":796,"o":"m 685 672 q 763 646 731 672 q 796 582 796 619 l 796 358 q 763 294 796 321 q 685 268 731 268 l 278 268 q 199 294 232 268 q 167 358 167 321 l 167 582 q 199 646 167 619 q 278 672 232 672 l 685 672 m 772 582 q 747 632 772 611 q 685 653 721 653 l 278 653 q 216 632 242 653 q 190 582 190 611 l 190 358 q 216 308 190 329 q 278 288 242 288 l 685 288 q 747 308 721 288 q 772 358 772 329 l 772 582 m 319 481 l 285 481 l 285 565 l 369 565 l 369 544 l 319 544 l 319 529 l 364 529 l 364 508 l 319 508 l 319 481 m 417 481 l 381 481 l 381 565 l 432 565 q 479 533 479 565 q 460 507 479 515 l 482 481 l 444 481 l 426 503 l 417 503 l 417 481 m 417 524 l 429 524 q 444 533 444 524 q 429 543 444 543 l 417 543 l 417 524 m 581 481 l 493 481 l 493 565 l 579 565 l 579 544 l 528 544 l 528 535 l 572 535 l 572 514 l 528 514 l 528 503 l 581 503 l 581 481 m 682 481 l 594 481 l 594 565 l 681 565 l 681 544 l 629 544 l 629 535 l 674 535 l 674 514 l 629 514 l 629 503 l 682 503 l 682 481 m 319 425 l 340 425 l 314 376 l 294 376 l 268 425 l 290 425 l 304 396 l 319 425 m 363 389 l 393 389 l 393 376 l 342 376 l 342 425 l 392 425 l 392 413 l 363 413 l 363 407 l 389 407 l 389 394 l 363 394 l 363 389 m 458 407 q 447 392 458 396 l 460 376 l 438 376 l 428 389 l 422 389 l 422 376 l 401 376 l 401 425 l 431 425 q 458 407 458 425 m 429 401 q 438 407 438 401 q 429 413 438 413 l 422 413 l 422 401 l 429 401 m 485 411 q 490 408 485 408 q 501 406 494 407 q 513 401 507 404 q 518 392 518 399 q 489 375 518 375 q 463 379 472 375 l 469 392 q 490 388 478 388 q 497 390 497 388 q 492 393 497 392 q 480 396 486 394 q 469 400 474 397 q 464 410 464 403 q 492 426 464 426 q 515 422 507 426 l 510 410 q 492 414 499 414 q 485 411 485 414 m 524 425 l 544 425 l 544 376 l 524 376 l 524 425 m 588 426 q 613 419 603 426 q 622 400 622 411 q 613 382 622 389 q 588 375 603 375 q 563 382 572 375 q 553 400 553 389 q 588 426 553 426 m 588 388 q 601 400 601 388 q 588 413 601 413 q 574 400 574 413 q 588 388 574 388 m 669 425 l 690 425 l 690 376 l 672 376 l 650 399 l 650 376 l 629 376 l 629 425 l 646 425 l 669 403 l 669 425 z "},"+":{"ha":851,"x_min":167,"x_max":796,"o":"m 685 672 q 763 646 731 672 q 796 582 796 619 l 796 358 q 763 294 796 321 q 685 268 731 268 l 278 268 q 199 294 232 268 q 167 358 167 321 l 167 582 q 199 646 167 619 q 278 672 232 672 l 685 672 m 772 582 q 747 632 772 611 q 685 653 721 653 l 278 653 q 216 632 242 653 q 190 582 190 611 l 190 358 q 216 308 190 329 q 278 288 242 288 l 685 288 q 747 308 721 288 q 772 358 772 329 l 772 582 m 319 481 l 285 481 l 285 565 l 369 565 l 369 544 l 319 544 l 319 529 l 364 529 l 364 508 l 319 508 l 319 481 m 417 481 l 381 481 l 381 565 l 432 565 q 479 533 479 565 q 460 507 479 515 l 482 481 l 444 481 l 426 503 l 417 503 l 417 481 m 417 524 l 429 524 q 444 533 444 524 q 429 543 444 543 l 417 543 l 417 524 m 581 481 l 493 481 l 493 565 l 579 565 l 579 544 l 528 544 l 528 535 l 572 535 l 572 514 l 528 514 l 528 503 l 581 503 l 581 481 m 682 481 l 594 481 l 594 565 l 681 565 l 681 544 l 629 544 l 629 535 l 674 535 l 674 514 l 629 514 l 629 503 l 682 503 l 682 481 m 319 425 l 340 425 l 314 376 l 294 376 l 268 425 l 290 425 l 304 396 l 319 425 m 363 389 l 393 389 l 393 376 l 342 376 l 342 425 l 392 425 l 392 413 l 363 413 l 363 407 l 389 407 l 389 394 l 363 394 l 363 389 m 458 407 q 447 392 458 396 l 460 376 l 438 376 l 428 389 l 422 389 l 422 376 l 401 376 l 401 425 l 431 425 q 458 407 458 425 m 429 401 q 438 407 438 401 q 429 413 438 413 l 422 413 l 422 401 l 429 401 m 485 411 q 490 408 485 408 q 501 406 494 407 q 513 401 507 404 q 518 392 518 399 q 489 375 518 375 q 463 379 472 375 l 469 392 q 490 388 478 388 q 497 390 497 388 q 492 393 497 392 q 480 396 486 394 q 469 400 474 397 q 464 410 464 403 q 492 426 464 426 q 515 422 507 426 l 510 410 q 492 414 499 414 q 485 411 485 414 m 524 425 l 544 425 l 544 376 l 524 376 l 524 425 m 588 426 q 613 419 603 426 q 622 400 622 411 q 613 382 622 389 q 588 375 603 375 q 563 382 572 375 q 553 400 553 389 q 588 426 553 426 m 588 388 q 601 400 601 388 q 588 413 601 413 q 574 400 574 413 q 588 388 574 388 m 669 425 l 690 425 l 690 376 l 672 376 l 650 399 l 650 376 l 629 376 l 629 425 l 646 425 l 669 403 l 669 425 z "},"-":{"ha":851,"x_min":167,"x_max":796,"o":"m 685 672 q 763 646 731 672 q 796 582 796 619 l 796 358 q 763 294 796 321 q 685 268 731 268 l 278 268 q 199 294 232 268 q 167 358 167 321 l 167 582 q 199 646 167 619 q 278 672 232 672 l 685 672 m 772 582 q 747 632 772 611 q 685 653 721 653 l 278 653 q 216 632 242 653 q 190 582 190 611 l 190 358 q 216 308 190 329 q 278 288 242 288 l 685 288 q 747 308 721 288 q 772 358 772 329 l 772 582 m 319 481 l 285 481 l 285 565 l 369 565 l 369 544 l 319 544 l 319 529 l 364 529 l 364 508 l 319 508 l 319 481 m 417 481 l 381 481 l 381 565 l 432 565 q 479 533 479 565 q 460 507 479 515 l 482 481 l 444 481 l 426 503 l 417 503 l 417 481 m 417 524 l 429 524 q 444 533 444 524 q 429 543 444 543 l 417 543 l 417 524 m 581 481 l 493 481 l 493 565 l 579 565 l 579 544 l 528 544 l 528 535 l 572 535 l 572 514 l 528 514 l 528 503 l 581 503 l 581 481 m 682 481 l 594 481 l 594 565 l 681 565 l 681 544 l 629 544 l 629 535 l 674 535 l 674 514 l 629 514 l 629 503 l 682 503 l 682 481 m 319 425 l 340 425 l 314 376 l 294 376 l 268 425 l 290 425 l 304 396 l 319 425 m 363 389 l 393 389 l 393 376 l 342 376 l 342 425 l 392 425 l 392 413 l 363 413 l 363 407 l 389 407 l 389 394 l 363 394 l 363 389 m 458 407 q 447 392 458 396 l 460 376 l 438 376 l 428 389 l 422 389 l 422 376 l 401 376 l 401 425 l 431 425 q 458 407 458 425 m 429 401 q 438 407 438 401 q 429 413 438 413 l 422 413 l 422 401 l 429 401 m 485 411 q 490 408 485 408 q 501 406 494 407 q 513 401 507 404 q 518 392 518 399 q 489 375 518 375 q 463 379 472 375 l 469 392 q 490 388 478 388 q 497 390 497 388 q 492 393 497 392 q 480 396 486 394 q 469 400 474 397 q 464 410 464 403 q 492 426 464 426 q 515 422 507 426 l 510 410 q 492 414 499 414 q 485 411 485 414 m 524 425 l 544 425 l 544 376 l 524 376 l 524 425 m 588 426 q 613 419 603 426 q 622 400 622 411 q 613 382 622 389 q 588 375 603 375 q 563 382 572 375 q 553 400 553 389 q 588 426 553 426 m 588 388 q 601 400 601 388 q 588 413 601 413 q 574 400 574 413 q 588 388 574 388 m 669 425 l 690 425 l 690 376 l 672 376 l 650 399 l 650 376 l 629 376 l 629 425 l 646 425 l 669 403 l 669 425 z "},"/":{"ha":851,"x_min":167,"x_max":796,"o":"m 685 672 q 763 646 731 672 q 796 582 796 619 l 796 358 q 763 294 796 321 q 685 268 731 268 l 278 268 q 199 294 232 268 q 167 358 167 321 l 167 582 q 199 646 167 619 q 278 672 232 672 l 685 672 m 772 582 q 747 632 772 611 q 685 653 721 653 l 278 653 q 216 632 242 653 q 190 582 190 611 l 190 358 q 216 308 190 329 q 278 288 242 288 l 685 288 q 747 308 721 288 q 772 358 772 329 l 772 582 m 319 481 l 285 481 l 285 565 l 369 565 l 369 544 l 319 544 l 319 529 l 364 529 l 364 508 l 319 508 l 319 481 m 417 481 l 381 481 l 381 565 l 432 565 q 479 533 479 565 q 460 507 479 515 l 482 481 l 444 481 l 426 503 l 417 503 l 417 481 m 417 524 l 429 524 q 444 533 444 524 q 429 543 444 543 l 417 543 l 417 524 m 581 481 l 493 481 l 493 565 l 579 565 l 579 544 l 528 544 l 528 535 l 572 535 l 572 514 l 528 514 l 528 503 l 581 503 l 581 481 m 682 481 l 594 481 l 594 565 l 681 565 l 681 544 l 629 544 l 629 535 l 674 535 l 674 514 l 629 514 l 629 503 l 682 503 l 682 481 m 319 425 l 340 425 l 314 376 l 294 376 l 268 425 l 290 425 l 304 396 l 319 425 m 363 389 l 393 389 l 393 376 l 342 376 l 342 425 l 392 425 l 392 413 l 363 413 l 363 407 l 389 407 l 389 394 l 363 394 l 363 389 m 458 407 q 447 392 458 396 l 460 376 l 438 376 l 428 389 l 422 389 l 422 376 l 401 376 l 401 425 l 431 425 q 458 407 458 425 m 429 401 q 438 407 438 401 q 429 413 438 413 l 422 413 l 422 401 l 429 401 m 485 411 q 490 408 485 408 q 501 406 494 407 q 513 401 507 404 q 518 392 518 399 q 489 375 518 375 q 463 379 472 375 l 469 392 q 490 388 478 388 q 497 390 497 388 q 492 393 497 392 q 480 396 486 394 q 469 400 474 397 q 464 410 464 403 q 492 426 464 426 q 515 422 507 426 l 510 410 q 492 414 499 414 q 485 411 485 414 m 524 425 l 544 425 l 544 376 l 524 376 l 524 425 m 588 426 q 613 419 603 426 q 622 400 622 411 q 613 382 622 389 q 588 375 603 375 q 563 382 572 375 q 553 400 553 389 q 588 426 553 426 m 588 388 q 601 400 601 388 q 588 413 601 413 q 574 400 574 413 q 588 388 574 388 m 669 425 l 690 425 l 690 376 l 672 376 l 650 399 l 650 376 l 629 376 l 629 425 l 646 425 l 669 403 l 669 425 z "},":":{"ha":851,"x_min":167,"x_max":796,"o":"m 685 672 q 763 646 731 672 q 796 582 796 619 l 796 358 q 763 294 796 321 q 685 268 731 268 l 278 268 q 199 294 232 268 q 167 358 167 321 l 167 582 q 199 646 167 619 q 278 672 232 672 l 685 672 m 772 582 q 747 632 772 611 q 685 653 721 653 l 278 653 q 216 632 242 653 q 190 582 190 611 l 190 358 q 216 308 190 329 q 278 288 242 288 l 685 288 q 747 308 721 288 q 772 358 772 329 l 772 582 m 319 481 l 285 481 l 285 565 l 369 565 l 369 544 l 319 544 l 319 529 l 364 529 l 364 508 l 319 508 l 319 481 m 417 481 l 381 481 l 381 565 l 432 565 q 479 533 479 565 q 460 507 479 515 l 482 481 l 444 481 l 426 503 l 417 503 l 417 481 m 417 524 l 429 524 q 444 533 444 524 q 429 543 444 543 l 417 543 l 417 524 m 581 481 l 493 481 l 493 565 l 579 565 l 579 544 l 528 544 l 528 535 l 572 535 l 572 514 l 528 514 l 528 503 l 581 503 l 581 481 m 682 481 l 594 481 l 594 565 l 681 565 l 681 544 l 629 544 l 629 535 l 674 535 l 674 514 l 629 514 l 629 503 l 682 503 l 682 481 m 319 425 l 340 425 l 314 376 l 294 376 l 268 425 l 290 425 l 304 396 l 319 425 m 363 389 l 393 389 l 393 376 l 342 376 l 342 425 l 392 425 l 392 413 l 363 413 l 363 407 l 389 407 l 389 394 l 363 394 l 363 389 m 458 407 q 447 392 458 396 l 460 376 l 438 376 l 428 389 l 422 389 l 422 376 l 401 376 l 401 425 l 431 425 q 458 407 458 425 m 429 401 q 438 407 438 401 q 429 413 438 413 l 422 413 l 422 401 l 429 401 m 485 411 q 490 408 485 408 q 501 406 494 407 q 513 401 507 404 q 518 392 518 399 q 489 375 518 375 q 463 379 472 375 l 469 392 q 490 388 478 388 q 497 390 497 388 q 492 393 497 392 q 480 396 486 394 q 469 400 474 397 q 464 410 464 403 q 492 426 464 426 q 515 422 507 426 l 510 410 q 492 414 499 414 q 485 411 485 414 m 524 425 l 544 425 l 544 376 l 524 376 l 524 425 m 588 426 q 613 419 603 426 q 622 400 622 411 q 613 382 622 389 q 588 375 603 375 q 563 382 572 375 q 553 400 553 389 q 588 426 553 426 m 588 388 q 601 400 601 388 q 588 413 601 413 q 574 400 574 413 q 588 388 574 388 m 669 425 l 690 425 l 690 376 l 672 376 l 650 399 l 650 376 l 629 376 l 629 425 l 646 425 l 669 403 l 669 425 z "},";":{"ha":851,"x_min":167,"x_max":796,"o":"m 685 672 q 763 646 731 672 q 796 582 796 619 l 796 358 q 763 294 796 321 q 685 268 731 268 l 278 268 q 199 294 232 268 q 167 358 167 321 l 167 582 q 199 646 167 619 q 278 672 232 672 l 685 672 m 772 582 q 747 632 772 611 q 685 653 721 653 l 278 653 q 216 632 242 653 q 190 582 190 611 l 190 358 q 216 308 190 329 q 278 288 242 288 l 685 288 q 747 308 721 288 q 772 358 772 329 l 772 582 m 319 481 l 285 481 l 285 565 l 369 565 l 369 544 l 319 544 l 319 529 l 364 529 l 364 508 l 319 508 l 319 481 m 417 481 l 381 481 l 381 565 l 432 565 q 479 533 479 565 q 460 507 479 515 l 482 481 l 444 481 l 426 503 l 417 503 l 417 481 m 417 524 l 429 524 q 444 533 444 524 q 429 543 444 543 l 417 543 l 417 524 m 581 481 l 493 481 l 493 565 l 579 565 l 579 544 l 528 544 l 528 535 l 572 535 l 572 514 l 528 514 l 528 503 l 581 503 l 581 481 m 682 481 l 594 481 l 594 565 l 681 565 l 681 544 l 629 544 l 629 535 l 674 535 l 674 514 l 629 514 l 629 503 l 682 503 l 682 481 m 319 425 l 340 425 l 314 376 l 294 376 l 268 425 l 290 425 l 304 396 l 319 425 m 363 389 l 393 389 l 393 376 l 342 376 l 342 425 l 392 425 l 392 413 l 363 413 l 363 407 l 389 407 l 389 394 l 363 394 l 363 389 m 458 407 q 447 392 458 396 l 460 376 l 438 376 l 428 389 l 422 389 l 422 376 l 401 376 l 401 425 l 431 425 q 458 407 458 425 m 429 401 q 438 407 438 401 q 429 413 438 413 l 422 413 l 422 401 l 429 401 m 485 411 q 490 408 485 408 q 501 406 494 407 q 513 401 507 404 q 518 392 518 399 q 489 375 518 375 q 463 379 472 375 l 469 392 q 490 388 478 388 q 497 390 497 388 q 492 393 497 392 q 480 396 486 394 q 469 400 474 397 q 464 410 464 403 q 492 426 464 426 q 515 422 507 426 l 510 410 q 492 414 499 414 q 485 411 485 414 m 524 425 l 544 425 l 544 376 l 524 376 l 524 425 m 588 426 q 613 419 603 426 q 622 400 622 411 q 613 382 622 389 q 588 375 603 375 q 563 382 572 375 q 553 400 553 389 q 588 426 553 426 m 588 388 q 601 400 601 388 q 588 413 601 413 q 574 400 574 413 q 588 388 574 388 m 669 425 l 690 425 l 690 376 l 672 376 l 650 399 l 650 376 l 629 376 l 629 425 l 646 425 l 669 403 l 669 425 z "},"<":{"ha":851,"x_min":167,"x_max":796,"o":"m 685 672 q 763 646 731 672 q 796 582 796 619 l 796 358 q 763 294 796 321 q 685 268 731 268 l 278 268 q 199 294 232 268 q 167 358 167 321 l 167 582 q 199 646 167 619 q 278 672 232 672 l 685 672 m 772 582 q 747 632 772 611 q 685 653 721 653 l 278 653 q 216 632 242 653 q 190 582 190 611 l 190 358 q 216 308 190 329 q 278 288 242 288 l 685 288 q 747 308 721 288 q 772 358 772 329 l 772 582 m 319 481 l 285 481 l 285 565 l 369 565 l 369 544 l 319 544 l 319 529 l 364 529 l 364 508 l 319 508 l 319 481 m 417 481 l 381 481 l 381 565 l 432 565 q 479 533 479 565 q 460 507 479 515 l 482 481 l 444 481 l 426 503 l 417 503 l 417 481 m 417 524 l 429 524 q 444 533 444 524 q 429 543 444 543 l 417 543 l 417 524 m 581 481 l 493 481 l 493 565 l 579 565 l 579 544 l 528 544 l 528 535 l 572 535 l 572 514 l 528 514 l 528 503 l 581 503 l 581 481 m 682 481 l 594 481 l 594 565 l 681 565 l 681 544 l 629 544 l 629 535 l 674 535 l 674 514 l 629 514 l 629 503 l 682 503 l 682 481 m 319 425 l 340 425 l 314 376 l 294 376 l 268 425 l 290 425 l 304 396 l 319 425 m 363 389 l 393 389 l 393 376 l 342 376 l 342 425 l 392 425 l 392 413 l 363 413 l 363 407 l 389 407 l 389 394 l 363 394 l 363 389 m 458 407 q 447 392 458 396 l 460 376 l 438 376 l 428 389 l 422 389 l 422 376 l 401 376 l 401 425 l 431 425 q 458 407 458 425 m 429 401 q 438 407 438 401 q 429 413 438 413 l 422 413 l 422 401 l 429 401 m 485 411 q 490 408 485 408 q 501 406 494 407 q 513 401 507 404 q 518 392 518 399 q 489 375 518 375 q 463 379 472 375 l 469 392 q 490 388 478 388 q 497 390 497 388 q 492 393 497 392 q 480 396 486 394 q 469 400 474 397 q 464 410 464 403 q 492 426 464 426 q 515 422 507 426 l 510 410 q 492 414 499 414 q 485 411 485 414 m 524 425 l 544 425 l 544 376 l 524 376 l 524 425 m 588 426 q 613 419 603 426 q 622 400 622 411 q 613 382 622 389 q 588 375 603 375 q 563 382 572 375 q 553 400 553 389 q 588 426 553 426 m 588 388 q 601 400 601 388 q 588 413 601 413 q 574 400 574 413 q 588 388 574 388 m 669 425 l 690 425 l 690 376 l 672 376 l 650 399 l 650 376 l 629 376 l 629 425 l 646 425 l 669 403 l 669 425 z "},"=":{"ha":851,"x_min":167,"x_max":796,"o":"m 685 672 q 763 646 731 672 q 796 582 796 619 l 796 358 q 763 294 796 321 q 685 268 731 268 l 278 268 q 199 294 232 268 q 167 358 167 321 l 167 582 q 199 646 167 619 q 278 672 232 672 l 685 672 m 772 582 q 747 632 772 611 q 685 653 721 653 l 278 653 q 216 632 242 653 q 190 582 190 611 l 190 358 q 216 308 190 329 q 278 288 242 288 l 685 288 q 747 308 721 288 q 772 358 772 329 l 772 582 m 319 481 l 285 481 l 285 565 l 369 565 l 369 544 l 319 544 l 319 529 l 364 529 l 364 508 l 319 508 l 319 481 m 417 481 l 381 481 l 381 565 l 432 565 q 479 533 479 565 q 460 507 479 515 l 482 481 l 444 481 l 426 503 l 417 503 l 417 481 m 417 524 l 429 524 q 444 533 444 524 q 429 543 444 543 l 417 543 l 417 524 m 581 481 l 493 481 l 493 565 l 579 565 l 579 544 l 528 544 l 528 535 l 572 535 l 572 514 l 528 514 l 528 503 l 581 503 l 581 481 m 682 481 l 594 481 l 594 565 l 681 565 l 681 544 l 629 544 l 629 535 l 674 535 l 674 514 l 629 514 l 629 503 l 682 503 l 682 481 m 319 425 l 340 425 l 314 376 l 294 376 l 268 425 l 290 425 l 304 396 l 319 425 m 363 389 l 393 389 l 393 376 l 342 376 l 342 425 l 392 425 l 392 413 l 363 413 l 363 407 l 389 407 l 389 394 l 363 394 l 363 389 m 458 407 q 447 392 458 396 l 460 376 l 438 376 l 428 389 l 422 389 l 422 376 l 401 376 l 401 425 l 431 425 q 458 407 458 425 m 429 401 q 438 407 438 401 q 429 413 438 413 l 422 413 l 422 401 l 429 401 m 485 411 q 490 408 485 408 q 501 406 494 407 q 513 401 507 404 q 518 392 518 399 q 489 375 518 375 q 463 379 472 375 l 469 392 q 490 388 478 388 q 497 390 497 388 q 492 393 497 392 q 480 396 486 394 q 469 400 474 397 q 464 410 464 403 q 492 426 464 426 q 515 422 507 426 l 510 410 q 492 414 499 414 q 485 411 485 414 m 524 425 l 544 425 l 544 376 l 524 376 l 524 425 m 588 426 q 613 419 603 426 q 622 400 622 411 q 613 382 622 389 q 588 375 603 375 q 563 382 572 375 q 553 400 553 389 q 588 426 553 426 m 588 388 q 601 400 601 388 q 588 413 601 413 q 574 400 574 413 q 588 388 574 388 m 669 425 l 690 425 l 690 376 l 672 376 l 650 399 l 650 376 l 629 376 l 629 425 l 646 425 l 669 403 l 669 425 z "},">":{"ha":851,"x_min":167,"x_max":796,"o":"m 685 672 q 763 646 731 672 q 796 582 796 619 l 796 358 q 763 294 796 321 q 685 268 731 268 l 278 268 q 199 294 232 268 q 167 358 167 321 l 167 582 q 199 646 167 619 q 278 672 232 672 l 685 672 m 772 582 q 747 632 772 611 q 685 653 721 653 l 278 653 q 216 632 242 653 q 190 582 190 611 l 190 358 q 216 308 190 329 q 278 288 242 288 l 685 288 q 747 308 721 288 q 772 358 772 329 l 772 582 m 319 481 l 285 481 l 285 565 l 369 565 l 369 544 l 319 544 l 319 529 l 364 529 l 364 508 l 319 508 l 319 481 m 417 481 l 381 481 l 381 565 l 432 565 q 479 533 479 565 q 460 507 479 515 l 482 481 l 444 481 l 426 503 l 417 503 l 417 481 m 417 524 l 429 524 q 444 533 444 524 q 429 543 444 543 l 417 543 l 417 524 m 581 481 l 493 481 l 493 565 l 579 565 l 579 544 l 528 544 l 528 535 l 572 535 l 572 514 l 528 514 l 528 503 l 581 503 l 581 481 m 682 481 l 594 481 l 594 565 l 681 565 l 681 544 l 629 544 l 629 535 l 674 535 l 674 514 l 629 514 l 629 503 l 682 503 l 682 481 m 319 425 l 340 425 l 314 376 l 294 376 l 268 425 l 290 425 l 304 396 l 319 425 m 363 389 l 393 389 l 393 376 l 342 376 l 342 425 l 392 425 l 392 413 l 363 413 l 363 407 l 389 407 l 389 394 l 363 394 l 363 389 m 458 407 q 447 392 458 396 l 460 376 l 438 376 l 428 389 l 422 389 l 422 376 l 401 376 l 401 425 l 431 425 q 458 407 458 425 m 429 401 q 438 407 438 401 q 429 413 438 413 l 422 413 l 422 401 l 429 401 m 485 411 q 490 408 485 408 q 501 406 494 407 q 513 401 507 404 q 518 392 518 399 q 489 375 518 375 q 463 379 472 375 l 469 392 q 490 388 478 388 q 497 390 497 388 q 492 393 497 392 q 480 396 486 394 q 469 400 474 397 q 464 410 464 403 q 492 426 464 426 q 515 422 507 426 l 510 410 q 492 414 499 414 q 485 411 485 414 m 524 425 l 544 425 l 544 376 l 524 376 l 524 425 m 588 426 q 613 419 603 426 q 622 400 622 411 q 613 382 622 389 q 588 375 603 375 q 563 382 572 375 q 553 400 553 389 q 588 426 553 426 m 588 388 q 601 400 601 388 q 588 413 601 413 q 574 400 574 413 q 588 388 574 388 m 669 425 l 690 425 l 690 376 l 672 376 l 650 399 l 650 376 l 629 376 l 629 425 l 646 425 l 669 403 l 669 425 z "},"?":{"ha":851,"x_min":167,"x_max":796,"o":"m 685 672 q 763 646 731 672 q 796 582 796 619 l 796 358 q 763 294 796 321 q 685 268 731 268 l 278 268 q 199 294 232 268 q 167 358 167 321 l 167 582 q 199 646 167 619 q 278 672 232 672 l 685 672 m 772 582 q 747 632 772 611 q 685 653 721 653 l 278 653 q 216 632 242 653 q 190 582 190 611 l 190 358 q 216 308 190 329 q 278 288 242 288 l 685 288 q 747 308 721 288 q 772 358 772 329 l 772 582 m 319 481 l 285 481 l 285 565 l 369 565 l 369 544 l 319 544 l 319 529 l 364 529 l 364 508 l 319 508 l 319 481 m 417 481 l 381 481 l 381 565 l 432 565 q 479 533 479 565 q 460 507 479 515 l 482 481 l 444 481 l 426 503 l 417 503 l 417 481 m 417 524 l 429 524 q 444 533 444 524 q 429 543 444 543 l 417 543 l 417 524 m 581 481 l 493 481 l 493 565 l 579 565 l 579 544 l 528 544 l 528 535 l 572 535 l 572 514 l 528 514 l 528 503 l 581 503 l 581 481 m 682 481 l 594 481 l 594 565 l 681 565 l 681 544 l 629 544 l 629 535 l 674 535 l 674 514 l 629 514 l 629 503 l 682 503 l 682 481 m 319 425 l 340 425 l 314 376 l 294 376 l 268 425 l 290 425 l 304 396 l 319 425 m 363 389 l 393 389 l 393 376 l 342 376 l 342 425 l 392 425 l 392 413 l 363 413 l 363 407 l 389 407 l 389 394 l 363 394 l 363 389 m 458 407 q 447 392 458 396 l 460 376 l 438 376 l 428 389 l 422 389 l 422 376 l 401 376 l 401 425 l 431 425 q 458 407 458 425 m 429 401 q 438 407 438 401 q 429 413 438 413 l 422 413 l 422 401 l 429 401 m 485 411 q 490 408 485 408 q 501 406 494 407 q 513 401 507 404 q 518 392 518 399 q 489 375 518 375 q 463 379 472 375 l 469 392 q 490 388 478 388 q 497 390 497 388 q 492 393 497 392 q 480 396 486 394 q 469 400 474 397 q 464 410 464 403 q 492 426 464 426 q 515 422 507 426 l 510 410 q 492 414 499 414 q 485 411 485 414 m 524 425 l 544 425 l 544 376 l 524 376 l 524 425 m 588 426 q 613 419 603 426 q 622 400 622 411 q 613 382 622 389 q 588 375 603 375 q 563 382 572 375 q 553 400 553 389 q 588 426 553 426 m 588 388 q 601 400 601 388 q 588 413 601 413 q 574 400 574 413 q 588 388 574 388 m 669 425 l 690 425 l 690 376 l 672 376 l 650 399 l 650 376 l 629 376 l 629 425 l 646 425 l 669 403 l 669 425 z "},"@":{"ha":851,"x_min":167,"x_max":796,"o":"m 685 672 q 763 646 731 672 q 796 582 796 619 l 796 358 q 763 294 796 321 q 685 268 731 268 l 278 268 q 199 294 232 268 q 167 358 167 321 l 167 582 q 199 646 167 619 q 278 672 232 672 l 685 672 m 772 582 q 747 632 772 611 q 685 653 721 653 l 278 653 q 216 632 242 653 q 190 582 190 611 l 190 358 q 216 308 190 329 q 278 288 242 288 l 685 288 q 747 308 721 288 q 772 358 772 329 l 772 582 m 319 481 l 285 481 l 285 565 l 369 565 l 369 544 l 319 544 l 319 529 l 364 529 l 364 508 l 319 508 l 319 481 m 417 481 l 381 481 l 381 565 l 432 565 q 479 533 479 565 q 460 507 479 515 l 482 481 l 444 481 l 426 503 l 417 503 l 417 481 m 417 524 l 429 524 q 444 533 444 524 q 429 543 444 543 l 417 543 l 417 524 m 581 481 l 493 481 l 493 565 l 579 565 l 579 544 l 528 544 l 528 535 l 572 535 l 572 514 l 528 514 l 528 503 l 581 503 l 581 481 m 682 481 l 594 481 l 594 565 l 681 565 l 681 544 l 629 544 l 629 535 l 674 535 l 674 514 l 629 514 l 629 503 l 682 503 l 682 481 m 319 425 l 340 425 l 314 376 l 294 376 l 268 425 l 290 425 l 304 396 l 319 425 m 363 389 l 393 389 l 393 376 l 342 376 l 342 425 l 392 425 l 392 413 l 363 413 l 363 407 l 389 407 l 389 394 l 363 394 l 363 389 m 458 407 q 447 392 458 396 l 460 376 l 438 376 l 428 389 l 422 389 l 422 376 l 401 376 l 401 425 l 431 425 q 458 407 458 425 m 429 401 q 438 407 438 401 q 429 413 438 413 l 422 413 l 422 401 l 429 401 m 485 411 q 490 408 485 408 q 501 406 494 407 q 513 401 507 404 q 518 392 518 399 q 489 375 518 375 q 463 379 472 375 l 469 392 q 490 388 478 388 q 497 390 497 388 q 492 393 497 392 q 480 396 486 394 q 469 400 474 397 q 464 410 464 403 q 492 426 464 426 q 515 422 507 426 l 510 410 q 492 414 499 414 q 485 411 485 414 m 524 425 l 544 425 l 544 376 l 524 376 l 524 425 m 588 426 q 613 419 603 426 q 622 400 622 411 q 613 382 622 389 q 588 375 603 375 q 563 382 572 375 q 553 400 553 389 q 588 426 553 426 m 588 388 q 601 400 601 388 q 588 413 601 413 q 574 400 574 413 q 588 388 574 388 m 669 425 l 690 425 l 690 376 l 672 376 l 650 399 l 650 376 l 629 376 l 629 425 l 646 425 l 669 403 l 669 425 z "},"[":{"ha":851,"x_min":167,"x_max":796,"o":"m 685 672 q 763 646 731 672 q 796 582 796 619 l 796 358 q 763 294 796 321 q 685 268 731 268 l 278 268 q 199 294 232 268 q 167 358 167 321 l 167 582 q 199 646 167 619 q 278 672 232 672 l 685 672 m 772 582 q 747 632 772 611 q 685 653 721 653 l 278 653 q 216 632 242 653 q 190 582 190 611 l 190 358 q 216 308 190 329 q 278 288 242 288 l 685 288 q 747 308 721 288 q 772 358 772 329 l 772 582 m 319 481 l 285 481 l 285 565 l 369 565 l 369 544 l 319 544 l 319 529 l 364 529 l 364 508 l 319 508 l 319 481 m 417 481 l 381 481 l 381 565 l 432 565 q 479 533 479 565 q 460 507 479 515 l 482 481 l 444 481 l 426 503 l 417 503 l 417 481 m 417 524 l 429 524 q 444 533 444 524 q 429 543 444 543 l 417 543 l 417 524 m 581 481 l 493 481 l 493 565 l 579 565 l 579 544 l 528 544 l 528 535 l 572 535 l 572 514 l 528 514 l 528 503 l 581 503 l 581 481 m 682 481 l 594 481 l 594 565 l 681 565 l 681 544 l 629 544 l 629 535 l 674 535 l 674 514 l 629 514 l 629 503 l 682 503 l 682 481 m 319 425 l 340 425 l 314 376 l 294 376 l 268 425 l 290 425 l 304 396 l 319 425 m 363 389 l 393 389 l 393 376 l 342 376 l 342 425 l 392 425 l 392 413 l 363 413 l 363 407 l 389 407 l 389 394 l 363 394 l 363 389 m 458 407 q 447 392 458 396 l 460 376 l 438 376 l 428 389 l 422 389 l 422 376 l 401 376 l 401 425 l 431 425 q 458 407 458 425 m 429 401 q 438 407 438 401 q 429 413 438 413 l 422 413 l 422 401 l 429 401 m 485 411 q 490 408 485 408 q 501 406 494 407 q 513 401 507 404 q 518 392 518 399 q 489 375 518 375 q 463 379 472 375 l 469 392 q 490 388 478 388 q 497 390 497 388 q 492 393 497 392 q 480 396 486 394 q 469 400 474 397 q 464 410 464 403 q 492 426 464 426 q 515 422 507 426 l 510 410 q 492 414 499 414 q 485 411 485 414 m 524 425 l 544 425 l 544 376 l 524 376 l 524 425 m 588 426 q 613 419 603 426 q 622 400 622 411 q 613 382 622 389 q 588 375 603 375 q 563 382 572 375 q 553 400 553 389 q 588 426 553 426 m 588 388 q 601 400 601 388 q 588 413 601 413 q 574 400 574 413 q 588 388 574 388 m 669 425 l 690 425 l 690 376 l 672 376 l 650 399 l 650 376 l 629 376 l 629 425 l 646 425 l 669 403 l 669 425 z "},"\\":{"ha":851,"x_min":167,"x_max":796,"o":"m 685 672 q 763 646 731 672 q 796 582 796 619 l 796 358 q 763 294 796 321 q 685 268 731 268 l 278 268 q 199 294 232 268 q 167 358 167 321 l 167 582 q 199 646 167 619 q 278 672 232 672 l 685 672 m 772 582 q 747 632 772 611 q 685 653 721 653 l 278 653 q 216 632 242 653 q 190 582 190 611 l 190 358 q 216 308 190 329 q 278 288 242 288 l 685 288 q 747 308 721 288 q 772 358 772 329 l 772 582 m 319 481 l 285 481 l 285 565 l 369 565 l 369 544 l 319 544 l 319 529 l 364 529 l 364 508 l 319 508 l 319 481 m 417 481 l 381 481 l 381 565 l 432 565 q 479 533 479 565 q 460 507 479 515 l 482 481 l 444 481 l 426 503 l 417 503 l 417 481 m 417 524 l 429 524 q 444 533 444 524 q 429 543 444 543 l 417 543 l 417 524 m 581 481 l 493 481 l 493 565 l 579 565 l 579 544 l 528 544 l 528 535 l 572 535 l 572 514 l 528 514 l 528 503 l 581 503 l 581 481 m 682 481 l 594 481 l 594 565 l 681 565 l 681 544 l 629 544 l 629 535 l 674 535 l 674 514 l 629 514 l 629 503 l 682 503 l 682 481 m 319 425 l 340 425 l 314 376 l 294 376 l 268 425 l 290 425 l 304 396 l 319 425 m 363 389 l 393 389 l 393 376 l 342 376 l 342 425 l 392 425 l 392 413 l 363 413 l 363 407 l 389 407 l 389 394 l 363 394 l 363 389 m 458 407 q 447 392 458 396 l 460 376 l 438 376 l 428 389 l 422 389 l 422 376 l 401 376 l 401 425 l 431 425 q 458 407 458 425 m 429 401 q 438 407 438 401 q 429 413 438 413 l 422 413 l 422 401 l 429 401 m 485 411 q 490 408 485 408 q 501 406 494 407 q 513 401 507 404 q 518 392 518 399 q 489 375 518 375 q 463 379 472 375 l 469 392 q 490 388 478 388 q 497 390 497 388 q 492 393 497 392 q 480 396 486 394 q 469 400 474 397 q 464 410 464 403 q 492 426 464 426 q 515 422 507 426 l 510 410 q 492 414 499 414 q 485 411 485 414 m 524 425 l 544 425 l 544 376 l 524 376 l 524 425 m 588 426 q 613 419 603 426 q 622 400 622 411 q 613 382 622 389 q 588 375 603 375 q 563 382 572 375 q 553 400 553 389 q 588 426 553 426 m 588 388 q 601 400 601 388 q 588 413 601 413 q 574 400 574 413 q 588 388 574 388 m 669 425 l 690 425 l 690 376 l 672 376 l 650 399 l 650 376 l 629 376 l 629 425 l 646 425 l 669 403 l 669 425 z "},"]":{"ha":851,"x_min":167,"x_max":796,"o":"m 685 672 q 763 646 731 672 q 796 582 796 619 l 796 358 q 763 294 796 321 q 685 268 731 268 l 278 268 q 199 294 232 268 q 167 358 167 321 l 167 582 q 199 646 167 619 q 278 672 232 672 l 685 672 m 772 582 q 747 632 772 611 q 685 653 721 653 l 278 653 q 216 632 242 653 q 190 582 190 611 l 190 358 q 216 308 190 329 q 278 288 242 288 l 685 288 q 747 308 721 288 q 772 358 772 329 l 772 582 m 319 481 l 285 481 l 285 565 l 369 565 l 369 544 l 319 544 l 319 529 l 364 529 l 364 508 l 319 508 l 319 481 m 417 481 l 381 481 l 381 565 l 432 565 q 479 533 479 565 q 460 507 479 515 l 482 481 l 444 481 l 426 503 l 417 503 l 417 481 m 417 524 l 429 524 q 444 533 444 524 q 429 543 444 543 l 417 543 l 417 524 m 581 481 l 493 481 l 493 565 l 579 565 l 579 544 l 528 544 l 528 535 l 572 535 l 572 514 l 528 514 l 528 503 l 581 503 l 581 481 m 682 481 l 594 481 l 594 565 l 681 565 l 681 544 l 629 544 l 629 535 l 674 535 l 674 514 l 629 514 l 629 503 l 682 503 l 682 481 m 319 425 l 340 425 l 314 376 l 294 376 l 268 425 l 290 425 l 304 396 l 319 425 m 363 389 l 393 389 l 393 376 l 342 376 l 342 425 l 392 425 l 392 413 l 363 413 l 363 407 l 389 407 l 389 394 l 363 394 l 363 389 m 458 407 q 447 392 458 396 l 460 376 l 438 376 l 428 389 l 422 389 l 422 376 l 401 376 l 401 425 l 431 425 q 458 407 458 425 m 429 401 q 438 407 438 401 q 429 413 438 413 l 422 413 l 422 401 l 429 401 m 485 411 q 490 408 485 408 q 501 406 494 407 q 513 401 507 404 q 518 392 518 399 q 489 375 518 375 q 463 379 472 375 l 469 392 q 490 388 478 388 q 497 390 497 388 q 492 393 497 392 q 480 396 486 394 q 469 400 474 397 q 464 410 464 403 q 492 426 464 426 q 515 422 507 426 l 510 410 q 492 414 499 414 q 485 411 485 414 m 524 425 l 544 425 l 544 376 l 524 376 l 524 425 m 588 426 q 613 419 603 426 q 622 400 622 411 q 613 382 622 389 q 588 375 603 375 q 563 382 572 375 q 553 400 553 389 q 588 426 553 426 m 588 388 q 601 400 601 388 q 588 413 601 413 q 574 400 574 413 q 588 388 574 388 m 669 425 l 690 425 l 690 376 l 672 376 l 650 399 l 650 376 l 629 376 l 629 425 l 646 425 l 669 403 l 669 425 z "},"^":{"ha":851,"x_min":167,"x_max":796,"o":"m 685 672 q 763 646 731 672 q 796 582 796 619 l 796 358 q 763 294 796 321 q 685 268 731 268 l 278 268 q 199 294 232 268 q 167 358 167 321 l 167 582 q 199 646 167 619 q 278 672 232 672 l 685 672 m 772 582 q 747 632 772 611 q 685 653 721 653 l 278 653 q 216 632 242 653 q 190 582 190 611 l 190 358 q 216 308 190 329 q 278 288 242 288 l 685 288 q 747 308 721 288 q 772 358 772 329 l 772 582 m 319 481 l 285 481 l 285 565 l 369 565 l 369 544 l 319 544 l 319 529 l 364 529 l 364 508 l 319 508 l 319 481 m 417 481 l 381 481 l 381 565 l 432 565 q 479 533 479 565 q 460 507 479 515 l 482 481 l 444 481 l 426 503 l 417 503 l 417 481 m 417 524 l 429 524 q 444 533 444 524 q 429 543 444 543 l 417 543 l 417 524 m 581 481 l 493 481 l 493 565 l 579 565 l 579 544 l 528 544 l 528 535 l 572 535 l 572 514 l 528 514 l 528 503 l 581 503 l 581 481 m 682 481 l 594 481 l 594 565 l 681 565 l 681 544 l 629 544 l 629 535 l 674 535 l 674 514 l 629 514 l 629 503 l 682 503 l 682 481 m 319 425 l 340 425 l 314 376 l 294 376 l 268 425 l 290 425 l 304 396 l 319 425 m 363 389 l 393 389 l 393 376 l 342 376 l 342 425 l 392 425 l 392 413 l 363 413 l 363 407 l 389 407 l 389 394 l 363 394 l 363 389 m 458 407 q 447 392 458 396 l 460 376 l 438 376 l 428 389 l 422 389 l 422 376 l 401 376 l 401 425 l 431 425 q 458 407 458 425 m 429 401 q 438 407 438 401 q 429 413 438 413 l 422 413 l 422 401 l 429 401 m 485 411 q 490 408 485 408 q 501 406 494 407 q 513 401 507 404 q 518 392 518 399 q 489 375 518 375 q 463 379 472 375 l 469 392 q 490 388 478 388 q 497 390 497 388 q 492 393 497 392 q 480 396 486 394 q 469 400 474 397 q 464 410 464 403 q 492 426 464 426 q 515 422 507 426 l 510 410 q 492 414 499 414 q 485 411 485 414 m 524 425 l 544 425 l 544 376 l 524 376 l 524 425 m 588 426 q 613 419 603 426 q 622 400 622 411 q 613 382 622 389 q 588 375 603 375 q 563 382 572 375 q 553 400 553 389 q 588 426 553 426 m 588 388 q 601 400 601 388 q 588 413 601 413 q 574 400 574 413 q 588 388 574 388 m 669 425 l 690 425 l 690 376 l 672 376 l 650 399 l 650 376 l 629 376 l 629 425 l 646 425 l 669 403 l 669 425 z "},"_":{"ha":851,"x_min":167,"x_max":796,"o":"m 685 672 q 763 646 731 672 q 796 582 796 619 l 796 358 q 763 294 796 321 q 685 268 731 268 l 278 268 q 199 294 232 268 q 167 358 167 321 l 167 582 q 199 646 167 619 q 278 672 232 672 l 685 672 m 772 582 q 747 632 772 611 q 685 653 721 653 l 278 653 q 216 632 242 653 q 190 582 190 611 l 190 358 q 216 308 190 329 q 278 288 242 288 l 685 288 q 747 308 721 288 q 772 358 772 329 l 772 582 m 319 481 l 285 481 l 285 565 l 369 565 l 369 544 l 319 544 l 319 529 l 364 529 l 364 508 l 319 508 l 319 481 m 417 481 l 381 481 l 381 565 l 432 565 q 479 533 479 565 q 460 507 479 515 l 482 481 l 444 481 l 426 503 l 417 503 l 417 481 m 417 524 l 429 524 q 444 533 444 524 q 429 543 444 543 l 417 543 l 417 524 m 581 481 l 493 481 l 493 565 l 579 565 l 579 544 l 528 544 l 528 535 l 572 535 l 572 514 l 528 514 l 528 503 l 581 503 l 581 481 m 682 481 l 594 481 l 594 565 l 681 565 l 681 544 l 629 544 l 629 535 l 674 535 l 674 514 l 629 514 l 629 503 l 682 503 l 682 481 m 319 425 l 340 425 l 314 376 l 294 376 l 268 425 l 290 425 l 304 396 l 319 425 m 363 389 l 393 389 l 393 376 l 342 376 l 342 425 l 392 425 l 392 413 l 363 413 l 363 407 l 389 407 l 389 394 l 363 394 l 363 389 m 458 407 q 447 392 458 396 l 460 376 l 438 376 l 428 389 l 422 389 l 422 376 l 401 376 l 401 425 l 431 425 q 458 407 458 425 m 429 401 q 438 407 438 401 q 429 413 438 413 l 422 413 l 422 401 l 429 401 m 485 411 q 490 408 485 408 q 501 406 494 407 q 513 401 507 404 q 518 392 518 399 q 489 375 518 375 q 463 379 472 375 l 469 392 q 490 388 478 388 q 497 390 497 388 q 492 393 497 392 q 480 396 486 394 q 469 400 474 397 q 464 410 464 403 q 492 426 464 426 q 515 422 507 426 l 510 410 q 492 414 499 414 q 485 411 485 414 m 524 425 l 544 425 l 544 376 l 524 376 l 524 425 m 588 426 q 613 419 603 426 q 622 400 622 411 q 613 382 622 389 q 588 375 603 375 q 563 382 572 375 q 553 400 553 389 q 588 426 553 426 m 588 388 q 601 400 601 388 q 588 413 601 413 q 574 400 574 413 q 588 388 574 388 m 669 425 l 690 425 l 690 376 l 672 376 l 650 399 l 650 376 l 629 376 l 629 425 l 646 425 l 669 403 l 669 425 z "},"`":{"ha":851,"x_min":167,"x_max":796,"o":"m 685 672 q 763 646 731 672 q 796 582 796 619 l 796 358 q 763 294 796 321 q 685 268 731 268 l 278 268 q 199 294 232 268 q 167 358 167 321 l 167 582 q 199 646 167 619 q 278 672 232 672 l 685 672 m 772 582 q 747 632 772 611 q 685 653 721 653 l 278 653 q 216 632 242 653 q 190 582 190 611 l 190 358 q 216 308 190 329 q 278 288 242 288 l 685 288 q 747 308 721 288 q 772 358 772 329 l 772 582 m 319 481 l 285 481 l 285 565 l 369 565 l 369 544 l 319 544 l 319 529 l 364 529 l 364 508 l 319 508 l 319 481 m 417 481 l 381 481 l 381 565 l 432 565 q 479 533 479 565 q 460 507 479 515 l 482 481 l 444 481 l 426 503 l 417 503 l 417 481 m 417 524 l 429 524 q 444 533 444 524 q 429 543 444 543 l 417 543 l 417 524 m 581 481 l 493 481 l 493 565 l 579 565 l 579 544 l 528 544 l 528 535 l 572 535 l 572 514 l 528 514 l 528 503 l 581 503 l 581 481 m 682 481 l 594 481 l 594 565 l 681 565 l 681 544 l 629 544 l 629 535 l 674 535 l 674 514 l 629 514 l 629 503 l 682 503 l 682 481 m 319 425 l 340 425 l 314 376 l 294 376 l 268 425 l 290 425 l 304 396 l 319 425 m 363 389 l 393 389 l 393 376 l 342 376 l 342 425 l 392 425 l 392 413 l 363 413 l 363 407 l 389 407 l 389 394 l 363 394 l 363 389 m 458 407 q 447 392 458 396 l 460 376 l 438 376 l 428 389 l 422 389 l 422 376 l 401 376 l 401 425 l 431 425 q 458 407 458 425 m 429 401 q 438 407 438 401 q 429 413 438 413 l 422 413 l 422 401 l 429 401 m 485 411 q 490 408 485 408 q 501 406 494 407 q 513 401 507 404 q 518 392 518 399 q 489 375 518 375 q 463 379 472 375 l 469 392 q 490 388 478 388 q 497 390 497 388 q 492 393 497 392 q 480 396 486 394 q 469 400 474 397 q 464 410 464 403 q 492 426 464 426 q 515 422 507 426 l 510 410 q 492 414 499 414 q 485 411 485 414 m 524 425 l 544 425 l 544 376 l 524 376 l 524 425 m 588 426 q 613 419 603 426 q 622 400 622 411 q 613 382 622 389 q 588 375 603 375 q 563 382 572 375 q 553 400 553 389 q 588 426 553 426 m 588 388 q 601 400 601 388 q 588 413 601 413 q 574 400 574 413 q 588 388 574 388 m 669 425 l 690 425 l 690 376 l 672 376 l 650 399 l 650 376 l 629 376 l 629 425 l 646 425 l 669 403 l 669 425 z "},"{":{"ha":851,"x_min":167,"x_max":796,"o":"m 685 672 q 763 646 731 672 q 796 582 796 619 l 796 358 q 763 294 796 321 q 685 268 731 268 l 278 268 q 199 294 232 268 q 167 358 167 321 l 167 582 q 199 646 167 619 q 278 672 232 672 l 685 672 m 772 582 q 747 632 772 611 q 685 653 721 653 l 278 653 q 216 632 242 653 q 190 582 190 611 l 190 358 q 216 308 190 329 q 278 288 242 288 l 685 288 q 747 308 721 288 q 772 358 772 329 l 772 582 m 319 481 l 285 481 l 285 565 l 369 565 l 369 544 l 319 544 l 319 529 l 364 529 l 364 508 l 319 508 l 319 481 m 417 481 l 381 481 l 381 565 l 432 565 q 479 533 479 565 q 460 507 479 515 l 482 481 l 444 481 l 426 503 l 417 503 l 417 481 m 417 524 l 429 524 q 444 533 444 524 q 429 543 444 543 l 417 543 l 417 524 m 581 481 l 493 481 l 493 565 l 579 565 l 579 544 l 528 544 l 528 535 l 572 535 l 572 514 l 528 514 l 528 503 l 581 503 l 581 481 m 682 481 l 594 481 l 594 565 l 681 565 l 681 544 l 629 544 l 629 535 l 674 535 l 674 514 l 629 514 l 629 503 l 682 503 l 682 481 m 319 425 l 340 425 l 314 376 l 294 376 l 268 425 l 290 425 l 304 396 l 319 425 m 363 389 l 393 389 l 393 376 l 342 376 l 342 425 l 392 425 l 392 413 l 363 413 l 363 407 l 389 407 l 389 394 l 363 394 l 363 389 m 458 407 q 447 392 458 396 l 460 376 l 438 376 l 428 389 l 422 389 l 422 376 l 401 376 l 401 425 l 431 425 q 458 407 458 425 m 429 401 q 438 407 438 401 q 429 413 438 413 l 422 413 l 422 401 l 429 401 m 485 411 q 490 408 485 408 q 501 406 494 407 q 513 401 507 404 q 518 392 518 399 q 489 375 518 375 q 463 379 472 375 l 469 392 q 490 388 478 388 q 497 390 497 388 q 492 393 497 392 q 480 396 486 394 q 469 400 474 397 q 464 410 464 403 q 492 426 464 426 q 515 422 507 426 l 510 410 q 492 414 499 414 q 485 411 485 414 m 524 425 l 544 425 l 544 376 l 524 376 l 524 425 m 588 426 q 613 419 603 426 q 622 400 622 411 q 613 382 622 389 q 588 375 603 375 q 563 382 572 375 q 553 400 553 389 q 588 426 553 426 m 588 388 q 601 400 601 388 q 588 413 601 413 q 574 400 574 413 q 588 388 574 388 m 669 425 l 690 425 l 690 376 l 672 376 l 650 399 l 650 376 l 629 376 l 629 425 l 646 425 l 669 403 l 669 425 z "},"|":{"ha":851,"x_min":167,"x_max":796,"o":"m 685 672 q 763 646 731 672 q 796 582 796 619 l 796 358 q 763 294 796 321 q 685 268 731 268 l 278 268 q 199 294 232 268 q 167 358 167 321 l 167 582 q 199 646 167 619 q 278 672 232 672 l 685 672 m 772 582 q 747 632 772 611 q 685 653 721 653 l 278 653 q 216 632 242 653 q 190 582 190 611 l 190 358 q 216 308 190 329 q 278 288 242 288 l 685 288 q 747 308 721 288 q 772 358 772 329 l 772 582 m 319 481 l 285 481 l 285 565 l 369 565 l 369 544 l 319 544 l 319 529 l 364 529 l 364 508 l 319 508 l 319 481 m 417 481 l 381 481 l 381 565 l 432 565 q 479 533 479 565 q 460 507 479 515 l 482 481 l 444 481 l 426 503 l 417 503 l 417 481 m 417 524 l 429 524 q 444 533 444 524 q 429 543 444 543 l 417 543 l 417 524 m 581 481 l 493 481 l 493 565 l 579 565 l 579 544 l 528 544 l 528 535 l 572 535 l 572 514 l 528 514 l 528 503 l 581 503 l 581 481 m 682 481 l 594 481 l 594 565 l 681 565 l 681 544 l 629 544 l 629 535 l 674 535 l 674 514 l 629 514 l 629 503 l 682 503 l 682 481 m 319 425 l 340 425 l 314 376 l 294 376 l 268 425 l 290 425 l 304 396 l 319 425 m 363 389 l 393 389 l 393 376 l 342 376 l 342 425 l 392 425 l 392 413 l 363 413 l 363 407 l 389 407 l 389 394 l 363 394 l 363 389 m 458 407 q 447 392 458 396 l 460 376 l 438 376 l 428 389 l 422 389 l 422 376 l 401 376 l 401 425 l 431 425 q 458 407 458 425 m 429 401 q 438 407 438 401 q 429 413 438 413 l 422 413 l 422 401 l 429 401 m 485 411 q 490 408 485 408 q 501 406 494 407 q 513 401 507 404 q 518 392 518 399 q 489 375 518 375 q 463 379 472 375 l 469 392 q 490 388 478 388 q 497 390 497 388 q 492 393 497 392 q 480 396 486 394 q 469 400 474 397 q 464 410 464 403 q 492 426 464 426 q 515 422 507 426 l 510 410 q 492 414 499 414 q 485 411 485 414 m 524 425 l 544 425 l 544 376 l 524 376 l 524 425 m 588 426 q 613 419 603 426 q 622 400 622 411 q 613 382 622 389 q 588 375 603 375 q 563 382 572 375 q 553 400 553 389 q 588 426 553 426 m 588 388 q 601 400 601 388 q 588 413 601 413 q 574 400 574 413 q 588 388 574 388 m 669 425 l 690 425 l 690 376 l 672 376 l 650 399 l 650 376 l 629 376 l 629 425 l 646 425 l 669 403 l 669 425 z "},"}":{"ha":851,"x_min":167,"x_max":796,"o":"m 685 672 q 763 646 731 672 q 796 582 796 619 l 796 358 q 763 294 796 321 q 685 268 731 268 l 278 268 q 199 294 232 268 q 167 358 167 321 l 167 582 q 199 646 167 619 q 278 672 232 672 l 685 672 m 772 582 q 747 632 772 611 q 685 653 721 653 l 278 653 q 216 632 242 653 q 190 582 190 611 l 190 358 q 216 308 190 329 q 278 288 242 288 l 685 288 q 747 308 721 288 q 772 358 772 329 l 772 582 m 319 481 l 285 481 l 285 565 l 369 565 l 369 544 l 319 544 l 319 529 l 364 529 l 364 508 l 319 508 l 319 481 m 417 481 l 381 481 l 381 565 l 432 565 q 479 533 479 565 q 460 507 479 515 l 482 481 l 444 481 l 426 503 l 417 503 l 417 481 m 417 524 l 429 524 q 444 533 444 524 q 429 543 444 543 l 417 543 l 417 524 m 581 481 l 493 481 l 493 565 l 579 565 l 579 544 l 528 544 l 528 535 l 572 535 l 572 514 l 528 514 l 528 503 l 581 503 l 581 481 m 682 481 l 594 481 l 594 565 l 681 565 l 681 544 l 629 544 l 629 535 l 674 535 l 674 514 l 629 514 l 629 503 l 682 503 l 682 481 m 319 425 l 340 425 l 314 376 l 294 376 l 268 425 l 290 425 l 304 396 l 319 425 m 363 389 l 393 389 l 393 376 l 342 376 l 342 425 l 392 425 l 392 413 l 363 413 l 363 407 l 389 407 l 389 394 l 363 394 l 363 389 m 458 407 q 447 392 458 396 l 460 376 l 438 376 l 428 389 l 422 389 l 422 376 l 401 376 l 401 425 l 431 425 q 458 407 458 425 m 429 401 q 438 407 438 401 q 429 413 438 413 l 422 413 l 422 401 l 429 401 m 485 411 q 490 408 485 408 q 501 406 494 407 q 513 401 507 404 q 518 392 518 399 q 489 375 518 375 q 463 379 472 375 l 469 392 q 490 388 478 388 q 497 390 497 388 q 492 393 497 392 q 480 396 486 394 q 469 400 474 397 q 464 410 464 403 q 492 426 464 426 q 515 422 507 426 l 510 410 q 492 414 499 414 q 485 411 485 414 m 524 425 l 544 425 l 544 376 l 524 376 l 524 425 m 588 426 q 613 419 603 426 q 622 400 622 411 q 613 382 622 389 q 588 375 603 375 q 563 382 572 375 q 553 400 553 389 q 588 426 553 426 m 588 388 q 601 400 601 388 q 588 413 601 413 q 574 400 574 413 q 588 388 574 388 m 669 425 l 690 425 l 690 376 l 672 376 l 650 399 l 650 376 l 629 376 l 629 425 l 646 425 l 669 403 l 669 425 z "},"~":{"ha":851,"x_min":167,"x_max":796,"o":"m 685 672 q 763 646 731 672 q 796 582 796 619 l 796 358 q 763 294 796 321 q 685 268 731 268 l 278 268 q 199 294 232 268 q 167 358 167 321 l 167 582 q 199 646 167 619 q 278 672 232 672 l 685 672 m 772 582 q 747 632 772 611 q 685 653 721 653 l 278 653 q 216 632 242 653 q 190 582 190 611 l 190 358 q 216 308 190 329 q 278 288 242 288 l 685 288 q 747 308 721 288 q 772 358 772 329 l 772 582 m 319 481 l 285 481 l 285 565 l 369 565 l 369 544 l 319 544 l 319 529 l 364 529 l 364 508 l 319 508 l 319 481 m 417 481 l 381 481 l 381 565 l 432 565 q 479 533 479 565 q 460 507 479 515 l 482 481 l 444 481 l 426 503 l 417 503 l 417 481 m 417 524 l 429 524 q 444 533 444 524 q 429 543 444 543 l 417 543 l 417 524 m 581 481 l 493 481 l 493 565 l 579 565 l 579 544 l 528 544 l 528 535 l 572 535 l 572 514 l 528 514 l 528 503 l 581 503 l 581 481 m 682 481 l 594 481 l 594 565 l 681 565 l 681 544 l 629 544 l 629 535 l 674 535 l 674 514 l 629 514 l 629 503 l 682 503 l 682 481 m 319 425 l 340 425 l 314 376 l 294 376 l 268 425 l 290 425 l 304 396 l 319 425 m 363 389 l 393 389 l 393 376 l 342 376 l 342 425 l 392 425 l 392 413 l 363 413 l 363 407 l 389 407 l 389 394 l 363 394 l 363 389 m 458 407 q 447 392 458 396 l 460 376 l 438 376 l 428 389 l 422 389 l 422 376 l 401 376 l 401 425 l 431 425 q 458 407 458 425 m 429 401 q 438 407 438 401 q 429 413 438 413 l 422 413 l 422 401 l 429 401 m 485 411 q 490 408 485 408 q 501 406 494 407 q 513 401 507 404 q 518 392 518 399 q 489 375 518 375 q 463 379 472 375 l 469 392 q 490 388 478 388 q 497 390 497 388 q 492 393 497 392 q 480 396 486 394 q 469 400 474 397 q 464 410 464 403 q 492 426 464 426 q 515 422 507 426 l 510 410 q 492 414 499 414 q 485 411 485 414 m 524 425 l 544 425 l 544 376 l 524 376 l 524 425 m 588 426 q 613 419 603 426 q 622 400 622 411 q 613 382 622 389 q 588 375 603 375 q 563 382 572 375 q 553 400 553 389 q 588 426 553 426 m 588 388 q 601 400 601 388 q 588 413 601 413 q 574 400 574 413 q 588 388 574 388 m 669 425 l 690 425 l 690 376 l 672 376 l 650 399 l 650 376 l 629 376 l 629 425 l 646 425 l 669 403 l 669 425 z "}}}
